{"glyphs":{"0":{"ha":693,"x_min":83,"x_max":665,"o":"m 83 242 q 175 597 83 407 q 295 745 219 686 q 463 804 371 804 q 610 735 556 804 q 665 542 665 667 q 606 258 665 406 q 424 22 535 90 q 276 -17 360 -17 q 138 51 192 -17 q 83 242 83 118 m 454 774 q 324 681 389 774 q 221 458 260 589 q 182 223 182 328 q 211 65 182 118 q 292 13 240 13 q 423 103 357 13 q 528 324 489 194 q 568 559 568 453 q 537 719 568 665 q 454 774 506 774 z "},"1":{"ha":426,"x_min":-69,"x_max":385,"o":"m 247 682 l 249 694 q 215 717 249 717 l 67 708 l 71 742 l 196 760 q 385 804 314 778 q 338 646 360 751 l 201 0 l 103 0 l 247 682 m 211 46 l 210 40 q 226 26 210 26 l 351 26 l 346 0 l -69 0 l -64 26 l 90 26 q 113 46 108 26 l 211 46 z "},"2":{"ha":640,"x_min":-21,"x_max":613,"o":"m 410 774 q 296 726 335 774 q 257 611 257 679 q 261 575 257 592 q 196 554 235 554 q 161 599 161 554 q 229 743 161 682 q 404 804 297 804 q 562 762 511 804 q 613 656 613 719 q 588 552 613 592 q 550 492 564 513 q 507 441 536 471 q 463 397 478 411 q 413 351 447 382 q 368 311 378 321 l 124 88 l 442 88 q 485 118 472 88 l 528 239 l 557 239 l 543 172 q 518 -12 518 51 q 369 0 475 0 l -21 0 l 353 347 q 473 513 438 425 q 508 663 508 601 q 410 774 508 774 z "},"3":{"ha":635,"x_min":28,"x_max":565,"o":"m 172 392 l 172 418 q 382 503 296 426 q 468 667 468 579 q 442 744 468 714 q 363 774 417 774 q 275 733 310 774 q 240 648 240 693 q 247 588 240 603 q 181 567 222 567 q 146 615 146 567 q 215 755 146 706 q 367 804 283 804 q 508 767 450 804 q 565 661 565 729 q 506 524 565 593 q 343 426 447 456 q 487 369 436 415 q 538 260 538 324 q 445 69 538 154 q 207 -17 353 -17 q 74 20 119 -17 q 28 111 28 57 q 44 199 28 165 q 90 233 61 233 q 150 211 119 233 q 115 107 115 154 q 212 13 115 13 q 372 85 308 13 q 435 240 435 158 q 381 360 435 322 q 239 397 328 397 q 172 392 201 397 z "},"4":{"ha":608,"x_min":-49,"x_max":553,"o":"m 478 186 l 411 186 l 381 40 q 396 26 381 26 l 488 26 l 483 0 l 165 0 l 169 26 l 260 26 q 285 46 278 26 l 314 186 l -49 186 l 506 804 l 549 804 l 421 226 l 488 226 q 511 246 508 226 l 529 314 l 553 314 l 504 99 l 481 99 q 494 171 494 167 q 478 186 494 186 m 31 226 l 324 226 l 418 654 l 31 226 z "},"5":{"ha":643,"x_min":63,"x_max":636,"o":"m 157 400 l 254 786 l 557 786 q 600 818 592 786 l 608 846 l 636 846 l 624 799 q 583 715 606 731 q 496 700 560 700 l 274 700 l 208 446 q 328 460 285 460 q 510 403 447 460 q 572 263 572 346 q 480 69 572 154 q 239 -17 388 -17 q 107 20 151 -17 q 63 110 63 57 q 79 198 63 163 q 131 233 96 233 q 185 211 165 233 q 150 100 150 160 q 248 13 150 13 q 408 88 346 13 q 469 251 469 164 q 418 378 469 338 q 293 419 367 419 q 157 400 219 419 z "},"6":{"ha":629,"x_min":63,"x_max":594,"o":"m 217 419 l 221 417 q 375 478 288 478 q 520 421 463 478 q 578 269 578 364 q 489 62 578 140 q 286 -17 400 -17 q 117 42 172 -17 q 63 204 63 101 q 123 429 63 307 q 306 660 183 551 q 583 817 429 769 l 594 785 q 395 663 507 758 q 217 419 283 568 m 354 438 q 215 356 263 438 q 167 187 167 275 q 199 56 167 99 q 283 13 231 13 q 416 86 354 13 q 478 274 478 160 q 443 394 478 351 q 354 438 408 438 z "},"7":{"ha":547,"x_min":83,"x_max":617,"o":"m 617 786 l 317 261 q 257 74 257 156 q 264 4 257 43 q 196 -17 236 -17 q 156 19 156 -17 q 275 261 156 72 l 521 700 l 203 700 q 158 668 169 700 l 115 547 l 83 547 l 99 615 q 126 800 122 718 q 274 786 171 786 l 617 786 z "},"8":{"ha":681,"x_min":56,"x_max":625,"o":"m 265 417 q 175 553 175 451 q 254 730 175 656 q 444 804 333 804 q 577 765 529 804 q 625 646 625 725 q 577 504 625 567 q 454 418 529 442 q 575 258 575 382 q 483 59 575 135 q 267 -17 392 -17 q 113 27 169 -17 q 56 156 56 71 q 114 315 56 242 q 265 417 172 389 m 360 401 q 214 319 269 401 q 158 143 158 236 q 189 47 158 82 q 271 13 219 13 q 410 85 344 13 q 475 269 475 157 q 443 367 475 332 q 360 401 411 401 m 439 774 q 314 699 361 774 q 267 557 267 624 q 293 461 267 490 q 361 432 319 432 q 479 496 424 432 q 535 661 535 560 q 508 744 535 714 q 439 774 482 774 z "},"9":{"ha":631,"x_min":90,"x_max":617,"o":"m 458 354 l 450 360 q 301 301 383 301 q 164 359 218 301 q 110 511 110 417 q 194 724 110 643 q 390 804 278 804 q 560 746 503 804 q 617 585 617 688 q 558 365 617 483 q 378 138 499 246 q 101 -17 257 31 l 90 15 q 291 133 179 44 q 458 354 403 222 m 329 342 q 467 424 419 342 q 514 596 514 507 q 484 729 514 685 q 394 774 454 774 q 272 699 333 774 q 211 507 211 624 q 244 385 211 428 q 329 342 278 342 z "}," ":{"ha":347,"x_min":0,"x_max":0,"o":""},"!":{"ha":361,"x_min":63,"x_max":357,"o":"m 181 236 l 147 236 q 229 810 207 646 q 258 869 235 847 q 310 892 281 892 q 357 840 357 892 q 326 713 357 811 q 250 473 296 615 q 181 236 204 331 m 83 3 q 73 13 83 3 q 63 50 63 22 q 83 97 63 78 q 129 117 103 117 q 176 97 156 117 q 196 50 196 78 q 176 3 196 22 q 129 -17 156 -17 q 83 3 103 -17 z "},"\"":{"ha":297,"x_min":104,"x_max":401,"o":"m 128 617 l 104 617 l 114 858 q 135 910 115 892 q 183 928 156 928 q 229 879 229 928 q 217 837 229 865 q 196 785 206 808 q 128 617 167 714 m 300 617 l 276 617 l 286 858 q 308 910 288 892 q 356 928 328 928 q 401 879 401 928 q 390 837 401 865 q 368 785 378 808 q 300 617 339 714 z "},"#":{"ha":643,"x_min":-67,"x_max":675,"o":"m 19 -140 l -26 -140 l 286 926 l 332 926 l 19 -140 m 607 324 l 593 281 l -67 281 l -53 324 l 607 324 m 304 -140 l 258 -140 l 571 926 l 617 926 l 304 -140 m 675 556 l 661 513 l 1 513 l 15 556 l 675 556 z "},"$":{"ha":611,"x_min":22,"x_max":582,"o":"m 215 -17 q 74 24 125 -17 q 22 125 22 64 q 42 200 22 167 q 94 233 61 233 q 147 211 128 233 q 107 114 107 160 q 140 42 107 68 q 222 17 172 17 q 366 74 306 17 q 426 204 426 132 q 347 319 426 276 l 222 386 q 131 534 131 433 q 207 719 131 635 q 408 804 283 804 q 539 767 496 804 q 582 677 582 729 q 563 590 582 625 q 510 554 544 554 q 457 575 475 554 q 493 676 493 635 q 469 741 493 717 q 400 765 446 765 q 269 708 318 765 q 219 579 219 650 q 294 469 219 508 l 422 403 q 531 239 531 346 q 436 58 531 132 q 215 -17 342 -17 m 221 -140 l 179 -140 l 406 926 l 447 926 l 221 -140 z "},"%":{"ha":1221,"x_min":125,"x_max":1096,"o":"m 265 285 q 231 285 265 285 q 160 328 196 285 q 125 448 125 372 q 150 601 125 524 q 234 742 175 679 q 363 804 293 804 q 467 761 432 804 q 503 643 503 718 q 478 490 503 568 q 394 348 453 411 q 265 285 335 285 m 364 778 q 254 660 306 778 q 203 427 203 542 q 265 313 203 313 q 342 371 304 313 q 403 510 381 429 q 426 653 426 590 q 364 778 426 778 m 858 -11 q 824 -11 858 -11 q 753 33 789 -11 q 718 152 718 76 q 743 306 718 228 q 827 446 768 383 q 956 508 886 508 q 1060 465 1025 508 q 1096 347 1096 422 q 1071 194 1096 272 q 987 52 1046 115 q 858 -11 928 -11 m 957 482 q 847 364 899 482 q 796 131 796 246 q 858 17 796 17 q 935 75 897 17 q 997 214 974 133 q 1019 357 1019 294 q 957 482 1019 482 m 458 -103 l 415 -103 l 761 900 l 806 900 l 458 -103 z "},"&":{"ha":797,"x_min":28,"x_max":797,"o":"m 464 -62 q 494 119 464 -24 l 488 119 q 246 -17 394 -17 q 83 30 139 -17 q 28 149 28 76 q 112 328 28 242 q 338 443 196 414 q 176 621 176 476 q 256 785 176 708 q 450 861 336 861 q 580 818 539 861 q 621 720 621 775 q 599 630 621 665 q 543 594 578 594 q 486 617 508 594 q 529 733 529 676 q 442 819 529 819 q 319 758 368 819 q 271 625 271 697 q 317 506 271 553 q 447 460 364 460 q 596 506 531 460 q 696 643 661 551 l 717 628 q 668 460 713 611 l 797 460 l 790 432 l 661 432 q 544 -83 544 19 q 582 -132 544 -132 q 644 -94 611 -132 q 699 13 676 -57 l 724 7 q 557 -174 658 -174 q 464 -62 464 -174 m 253 19 q 419 91 339 19 q 538 308 500 163 l 569 432 l 447 432 q 210 338 297 432 q 124 138 124 243 q 158 53 124 86 q 253 19 192 19 z "},"'":{"ha":125,"x_min":104,"x_max":229,"o":"m 128 617 l 104 617 l 114 858 q 135 910 115 892 q 183 928 156 928 q 229 879 229 928 q 217 837 229 865 q 196 785 206 808 q 128 617 167 714 z "},"(":{"ha":379,"x_min":57,"x_max":465,"o":"m 465 861 q 240 562 321 754 q 160 165 160 369 q 254 -136 160 -40 l 235 -157 q 102 -4 147 -103 q 57 215 57 94 q 166 603 57 414 q 456 882 275 793 l 465 861 z "},")":{"ha":379,"x_min":-64,"x_max":342,"o":"m -64 -136 q 157 165 75 -31 q 239 562 239 361 q 146 861 239 763 l 163 882 q 297 730 253 828 q 342 510 342 632 q 233 121 342 311 q -58 -157 124 -69 l -64 -136 z "},"*":{"ha":553,"x_min":146,"x_max":588,"o":"m 347 693 l 342 832 q 360 894 342 872 q 406 917 378 917 q 443 878 443 917 q 440 855 443 867 q 410 786 438 843 q 369 693 383 729 q 444 738 401 711 q 546 788 526 788 q 576 776 565 788 q 588 744 588 764 q 580 710 588 724 q 551 691 572 697 q 509 683 529 685 q 446 678 489 681 q 369 671 403 675 q 421 616 390 646 q 465 569 451 586 q 478 533 478 553 q 458 493 478 513 q 416 474 439 474 q 384 490 393 474 q 367 565 375 507 q 350 658 358 622 q 290 557 308 590 q 258 506 271 524 q 212 474 235 474 q 178 486 189 474 q 167 516 167 499 q 181 551 167 533 q 213 581 194 568 q 269 621 231 594 q 336 671 307 647 q 271 677 306 675 q 217 681 236 679 q 179 686 197 682 q 146 719 146 692 q 164 767 146 747 q 201 788 182 788 q 239 776 221 788 q 289 738 257 764 q 347 693 321 711 z "},"+":{"ha":701,"x_min":103,"x_max":636,"o":"m 461 544 l 411 310 l 636 310 l 621 236 l 396 236 l 346 0 l 276 0 l 326 236 l 103 236 l 118 310 l 342 310 l 392 544 l 461 544 z "},",":{"ha":253,"x_min":7,"x_max":213,"o":"m 7 -154 q 97 -8 97 -85 q 68 60 97 33 q 101 115 75 92 q 156 139 126 139 q 213 82 213 139 q 156 -53 213 25 q 18 -174 100 -132 l 7 -154 z "},"-":{"ha":388,"x_min":42,"x_max":388,"o":"m 42 293 l 54 349 l 388 349 l 375 293 l 42 293 z "},".":{"ha":267,"x_min":60,"x_max":207,"o":"m 81 5 q 70 16 81 5 q 60 57 60 26 q 81 109 60 88 q 133 131 103 131 q 185 109 164 131 q 207 57 207 88 q 185 5 207 26 q 133 -17 164 -17 q 81 5 103 -17 z "},"/":{"ha":443,"x_min":25,"x_max":418,"o":"m 71 -103 l 25 -103 l 371 900 l 418 900 l 71 -103 z "},":":{"ha":303,"x_min":56,"x_max":303,"o":"m 77 5 q 66 16 77 5 q 56 57 56 26 q 77 109 56 88 q 129 131 99 131 q 181 109 160 131 q 203 57 203 88 q 181 5 203 26 q 129 -17 160 -17 q 77 5 99 -17 m 177 466 q 166 477 177 466 q 156 518 156 488 q 177 570 156 549 q 229 592 199 592 q 281 570 260 592 q 303 518 303 549 q 281 466 303 488 q 229 444 260 444 q 177 466 199 444 z "},";":{"ha":279,"x_min":-21,"x_max":279,"o":"m -21 -154 q 69 -8 69 -85 q 40 60 69 33 q 73 115 47 92 q 128 139 99 139 q 185 82 185 139 q 128 -53 185 25 q -10 -174 72 -132 l -21 -154 m 153 466 q 143 477 153 466 q 132 518 132 488 q 153 570 132 549 q 206 592 175 592 q 258 570 236 592 q 279 518 279 549 q 258 466 279 488 q 206 444 236 444 q 153 466 175 444 z "},"<":{"ha":701,"x_min":132,"x_max":719,"o":"m 703 625 l 215 411 l 613 199 l 596 122 l 132 375 l 147 449 l 719 701 l 703 625 z "},"=":{"ha":701,"x_min":39,"x_max":622,"o":"m 607 354 l 89 354 l 104 428 l 622 428 l 607 354 m 557 118 l 39 118 l 54 192 l 572 192 l 557 118 z "},">":{"ha":701,"x_min":78,"x_max":665,"o":"m 94 199 l 581 411 l 185 625 l 201 701 l 665 449 l 650 375 l 78 122 l 94 199 z "},"?":{"ha":468,"x_min":90,"x_max":518,"o":"m 354 863 q 470 824 422 863 q 518 725 518 785 q 486 619 518 665 q 409 536 454 572 q 319 465 364 500 q 210 304 210 382 q 239 218 210 263 l 218 201 q 154 340 154 275 q 253 508 154 422 q 336 579 294 543 q 435 742 435 667 q 409 809 435 785 q 349 833 383 833 q 247 787 283 833 q 211 675 211 740 q 215 640 211 657 q 151 619 192 619 q 119 665 119 619 q 184 803 119 744 q 354 863 249 863 m 110 3 q 100 13 110 3 q 90 50 90 22 q 110 97 90 78 q 157 117 131 117 q 203 97 183 117 q 224 50 224 78 q 203 3 224 22 q 157 -17 183 -17 q 110 3 131 -17 z "},"@":{"ha":1104,"x_min":81,"x_max":1021,"o":"m 635 160 l 626 160 q 533 37 588 74 q 417 0 479 0 q 315 49 354 0 q 276 168 276 97 q 305 303 276 239 q 386 424 333 368 q 526 516 439 481 q 718 553 613 551 l 733 600 l 769 600 l 681 160 q 669 58 669 101 q 691 -3 669 15 q 747 -22 713 -22 q 897 72 822 -22 q 971 322 971 167 q 861 587 971 476 q 578 697 751 697 q 268 562 406 697 q 131 253 131 426 q 241 -31 131 79 q 515 -140 351 -140 l 511 -190 q 204 -67 328 -190 q 81 238 81 56 q 235 596 81 444 q 582 747 389 747 q 898 624 775 747 q 1021 323 1021 500 q 929 37 1021 146 q 742 -72 838 -72 q 622 60 622 -72 q 635 160 622 100 m 707 518 q 476 410 571 510 q 381 167 381 310 q 401 77 381 107 q 460 47 422 47 q 535 81 497 47 q 600 172 572 115 q 681 406 647 269 l 707 518 z "},"A":{"ha":708,"x_min":-111,"x_max":667,"o":"m 501 25 l 464 293 l 157 293 l 7 25 l 93 25 l 89 0 l -111 0 l -106 25 l -57 25 q -28 44 -37 25 l 439 875 l 483 875 l 597 44 q 618 25 600 25 l 667 25 l 663 0 l 411 0 l 415 25 l 501 25 m 404 733 l 178 332 l 458 332 l 404 733 z "},"B":{"ha":736,"x_min":14,"x_max":708,"o":"m 194 850 l 199 875 l 499 875 q 647 830 586 875 q 708 708 708 785 q 656 565 708 631 q 522 467 603 499 q 636 407 593 453 q 679 292 679 361 q 579 82 679 164 q 356 0 479 0 l 14 0 l 18 25 l 82 25 q 104 46 100 25 q 271 842 271 835 q 256 850 271 850 l 194 850 m 444 446 l 283 446 l 196 32 l 357 32 q 511 116 449 32 q 574 294 574 200 q 541 403 574 361 q 444 446 508 446 m 464 843 l 367 843 l 289 474 l 385 474 q 554 546 488 474 q 621 703 621 618 q 581 803 621 764 q 464 843 542 843 z "},"C":{"ha":763,"x_min":69,"x_max":818,"o":"m 607 19 l 608 31 q 593 49 608 49 q 550 33 582 49 q 368 -17 454 -17 q 150 67 231 -17 q 69 300 69 150 q 103 504 69 401 q 197 694 136 607 q 353 837 257 782 q 561 892 449 892 q 722 842 647 892 q 758 826 747 826 q 785 856 775 826 l 793 883 l 818 883 l 767 643 l 743 643 q 744 675 744 654 q 691 808 744 765 q 547 851 638 851 q 381 793 457 851 q 258 647 304 735 q 165 283 165 464 q 219 92 165 160 q 369 24 274 24 q 543 74 465 24 q 656 232 621 125 l 679 232 l 631 0 l 606 0 l 607 19 z "},"D":{"ha":849,"x_min":14,"x_max":835,"o":"m 526 843 l 367 843 l 196 32 l 357 32 q 521 88 446 32 q 642 228 596 143 q 736 579 736 404 q 678 774 736 704 q 526 843 621 843 m 199 875 l 535 875 q 754 794 674 875 q 835 567 835 713 q 801 369 835 468 q 707 187 767 269 q 553 52 647 104 q 350 0 460 0 l 14 0 l 18 25 l 82 25 q 104 46 100 25 q 271 842 271 835 q 256 850 271 850 l 194 850 l 199 875 z "},"E":{"ha":753,"x_min":14,"x_max":767,"o":"m 199 875 l 617 875 q 767 888 722 875 q 717 708 746 839 l 703 643 l 672 643 l 690 819 q 660 843 690 843 l 367 843 l 285 457 l 565 457 q 585 476 579 458 l 613 563 l 636 563 l 582 313 l 558 313 l 571 399 q 556 418 571 418 l 278 418 l 196 32 l 503 32 q 546 63 536 32 l 604 232 l 635 232 l 621 167 q 594 -12 594 43 q 451 0 554 0 l 14 0 l 18 25 l 82 25 q 104 46 100 25 q 271 842 271 835 q 256 850 271 850 l 194 850 l 199 875 z "},"F":{"ha":696,"x_min":14,"x_max":758,"o":"m 199 875 l 610 875 q 758 888 714 875 q 710 708 740 846 l 696 643 l 665 643 l 679 814 q 649 836 679 836 l 365 836 l 285 457 l 558 457 q 579 476 575 460 l 604 563 l 628 563 l 574 313 l 550 313 l 564 399 q 547 418 564 418 l 276 418 l 197 39 q 211 25 197 25 l 326 25 l 322 0 l 14 0 l 18 25 l 82 25 q 104 46 100 25 q 271 842 271 835 q 256 850 271 850 l 194 850 l 199 875 z "},"G":{"ha":804,"x_min":69,"x_max":818,"o":"m 738 314 l 728 267 q 601 63 701 143 q 365 -17 500 -17 q 150 67 231 -17 q 69 300 69 150 q 103 504 69 401 q 197 694 136 607 q 353 837 257 782 q 561 892 449 892 q 722 842 647 892 q 758 826 747 826 q 785 856 775 826 l 793 883 l 818 883 l 767 643 l 743 643 q 744 675 744 654 q 691 808 744 765 q 547 851 638 851 q 381 793 457 851 q 258 647 304 735 q 165 283 165 464 q 221 91 165 158 q 384 24 276 24 q 556 94 492 24 q 644 318 619 165 q 631 333 644 333 l 543 333 l 547 358 l 801 358 l 797 333 l 763 333 q 738 314 742 333 z "},"H":{"ha":935,"x_min":14,"x_max":963,"o":"m 872 831 l 706 39 q 721 25 706 25 l 782 25 l 778 0 l 522 0 l 526 25 l 590 25 q 613 46 608 25 l 692 418 l 275 418 q 197 38 197 50 q 213 25 197 25 l 274 25 l 269 0 l 14 0 l 18 25 l 82 25 q 104 46 100 25 q 271 842 271 835 q 256 850 271 850 l 194 850 l 199 875 l 454 875 l 450 850 l 388 850 q 364 831 369 850 l 283 457 l 699 457 q 779 843 779 836 q 764 850 779 850 l 703 850 l 707 875 l 963 875 l 958 850 l 896 850 q 872 831 878 850 z "},"I":{"ha":426,"x_min":14,"x_max":454,"o":"m 364 831 l 197 39 q 213 25 197 25 l 274 25 l 269 0 l 14 0 l 18 25 l 82 25 q 104 46 100 25 q 271 842 271 835 q 256 850 271 850 l 194 850 l 199 875 l 454 875 l 450 850 l 388 850 q 364 831 369 850 z "},"J":{"ha":413,"x_min":-161,"x_max":454,"o":"m 81 -62 l 271 839 q 256 850 271 850 l 194 850 l 199 875 l 454 875 l 450 850 l 388 850 q 364 831 369 850 l 225 176 q -46 -221 140 -221 q -134 -194 -107 -221 q -161 -126 -161 -167 q -141 -51 -161 -85 q -85 -17 -121 -17 q -33 -37 -50 -17 q -74 -142 -74 -96 q -62 -174 -74 -161 q -22 -187 -50 -187 q 37 -157 7 -187 q 81 -62 67 -126 z "},"K":{"ha":789,"x_min":14,"x_max":838,"o":"m 364 831 l 197 39 q 213 25 197 25 l 274 25 l 269 0 l 14 0 l 18 25 l 82 25 q 104 46 100 25 q 271 842 271 835 q 256 850 271 850 l 194 850 l 199 875 l 454 875 l 450 850 l 388 850 q 364 831 369 850 m 563 243 l 565 115 q 611 29 568 29 q 658 58 639 29 q 676 133 676 88 l 703 138 q 666 25 703 67 q 574 -17 629 -17 q 469 132 475 -17 l 464 268 q 426 394 460 358 q 317 429 393 429 l 324 451 l 719 850 l 654 850 l 658 875 l 838 875 l 833 850 l 797 850 q 757 831 775 850 l 381 454 q 520 396 481 453 q 563 243 560 339 z "},"L":{"ha":629,"x_min":14,"x_max":601,"o":"m 364 831 l 196 32 l 469 32 q 514 63 504 32 l 571 232 l 601 232 l 588 167 q 561 -12 561 46 q 418 0 521 0 l 14 0 l 18 25 l 82 25 q 104 46 100 25 q 271 842 271 835 q 256 850 271 850 l 194 850 l 199 875 l 454 875 l 450 850 l 388 850 q 364 831 369 850 z "},"M":{"ha":1068,"x_min":0,"x_max":1096,"o":"m 901 785 l 446 0 l 401 0 l 290 785 q 135 35 135 46 q 150 25 135 25 l 211 25 l 207 0 l 0 0 l 4 25 l 68 25 q 90 46 86 25 q 257 842 257 835 q 242 850 257 850 l 181 850 l 185 875 l 374 875 l 478 131 l 907 875 l 1096 875 l 1092 850 l 1029 850 q 1006 831 1011 850 q 942 525 988 743 q 839 37 839 49 q 854 25 839 25 l 915 25 l 911 0 l 656 0 l 660 25 l 724 25 q 746 46 742 25 l 901 785 z "},"N":{"ha":888,"x_min":0,"x_max":929,"o":"m 379 875 l 656 174 q 796 844 796 838 q 781 850 796 850 l 719 850 l 724 875 l 929 875 l 925 850 l 863 850 q 839 831 844 850 l 664 0 l 622 0 l 297 815 q 135 34 135 43 q 150 25 135 25 l 211 25 l 207 0 l 0 0 l 4 25 l 68 25 q 90 46 86 25 q 257 842 257 835 q 242 850 257 850 l 181 850 l 185 875 l 379 875 z "},"O":{"ha":871,"x_min":69,"x_max":857,"o":"m 389 856 q 560 892 469 892 q 777 809 697 892 q 857 576 857 726 q 824 372 857 475 q 731 181 790 268 q 575 38 671 93 q 354 -17 479 -17 q 149 67 229 -17 q 69 308 69 150 q 156 628 69 467 q 389 856 243 789 m 703 785 q 675 820 703 785 q 556 856 647 856 q 386 797 464 856 q 263 647 308 738 q 167 286 167 461 q 222 90 167 160 q 369 19 276 19 q 539 78 461 19 q 664 226 617 138 q 760 588 760 411 q 703 785 760 714 z "},"P":{"ha":683,"x_min":14,"x_max":725,"o":"m 397 349 l 261 349 q 197 40 197 54 q 213 25 197 25 l 314 25 l 310 0 l 14 0 l 18 25 l 82 25 q 104 46 100 25 q 271 842 271 835 q 256 850 271 850 l 194 850 l 199 875 l 508 875 q 664 822 603 875 q 725 676 725 769 q 624 439 725 529 q 397 349 522 349 m 493 843 l 367 843 l 268 381 l 399 381 q 566 478 499 381 q 633 682 633 575 q 598 797 633 751 q 493 843 563 843 z "},"Q":{"ha":871,"x_min":69,"x_max":857,"o":"m 469 38 l 478 13 q 336 -15 403 -15 q 140 75 211 -15 q 69 300 69 165 q 153 622 69 467 q 389 856 243 789 q 560 892 469 892 q 777 809 697 892 q 857 585 857 726 q 817 326 857 443 q 713 130 778 210 q 568 -7 649 50 q 250 -118 411 -118 l 250 -125 q 359 -159 290 -125 q 469 -193 428 -193 q 642 -60 560 -193 l 658 -68 q 443 -275 549 -275 q 320 -218 390 -275 q 213 -161 250 -161 q 151 -183 176 -161 q 97 -256 125 -204 l 81 -249 q 181 -106 119 -136 q 259 -87 210 -92 q 364 -66 308 -82 q 495 -4 419 -50 q 626 110 571 42 q 720 303 681 179 q 760 571 760 428 q 703 785 760 714 q 556 856 647 856 q 386 797 464 856 q 263 647 308 738 q 167 286 167 461 q 215 96 167 172 q 365 19 263 19 q 469 38 414 19 z "},"R":{"ha":788,"x_min":14,"x_max":746,"o":"m 360 404 l 272 404 q 197 36 197 47 q 213 25 197 25 l 301 25 l 297 0 l 14 0 l 18 25 l 82 25 q 104 46 100 25 q 271 842 271 835 q 256 850 271 850 l 194 850 l 199 875 l 514 875 q 673 826 610 875 q 736 681 736 776 q 667 513 736 586 q 497 414 599 439 q 594 263 594 376 q 581 156 594 222 q 568 69 568 89 q 599 31 568 31 q 663 74 629 31 q 722 199 696 118 l 746 193 q 663 33 708 82 q 554 -17 617 -17 q 503 6 524 -17 q 482 71 482 29 q 495 178 482 113 q 508 294 508 243 q 360 404 508 404 m 500 843 l 367 843 l 279 438 l 418 438 q 580 519 515 438 q 644 693 644 601 q 608 801 644 758 q 500 843 571 843 z "},"S":{"ha":635,"x_min":-21,"x_max":656,"o":"m 246 -17 q 72 33 147 -17 q 38 49 47 49 q 6 0 13 49 l -21 0 l 28 232 l 53 232 q 51 199 51 221 q 103 66 51 108 q 247 24 156 24 q 399 88 338 24 q 461 237 461 153 q 375 363 461 321 l 264 419 q 133 618 133 483 q 215 808 133 724 q 421 892 297 892 q 569 846 503 892 q 600 831 592 831 q 624 860 614 831 l 631 883 l 656 883 l 604 643 l 581 643 q 583 683 583 671 q 540 810 583 769 q 414 851 496 851 q 274 790 332 851 q 217 653 217 729 q 301 514 217 558 l 444 440 q 560 272 560 381 q 465 73 560 163 q 246 -17 371 -17 z "},"T":{"ha":656,"x_min":69,"x_max":767,"o":"m 264 875 l 618 875 q 767 888 722 875 q 718 708 749 846 l 704 643 l 674 643 l 689 811 q 657 836 689 836 l 479 836 q 311 34 311 43 q 326 25 311 25 l 446 25 l 442 0 l 69 0 l 74 25 l 196 25 q 218 46 214 25 l 385 836 l 208 836 q 165 806 175 836 l 111 643 l 81 643 l 94 708 q 121 888 121 829 q 264 875 161 875 z "},"U":{"ha":846,"x_min":114,"x_max":915,"o":"m 124 271 l 244 839 q 229 850 244 850 l 167 850 l 171 875 l 426 875 l 422 850 l 360 850 q 336 831 342 850 l 215 261 q 207 190 207 222 q 256 69 207 108 q 385 29 304 29 q 544 82 461 29 q 661 269 633 139 l 781 835 q 767 850 781 850 l 704 850 l 708 875 l 915 875 l 911 850 l 849 850 q 825 831 831 850 l 707 271 q 583 55 676 126 q 365 -17 489 -17 q 114 188 114 -17 q 124 271 114 228 z "},"V":{"ha":696,"x_min":97,"x_max":835,"o":"m 101 875 l 332 875 l 328 850 l 263 850 l 342 151 l 717 850 l 651 850 l 656 875 l 835 875 l 831 850 l 782 850 q 753 831 763 850 l 306 0 l 261 0 l 167 831 q 146 850 164 850 l 97 850 l 101 875 z "},"W":{"ha":1131,"x_min":111,"x_max":1269,"o":"m 1090 875 l 1269 875 l 1265 850 l 1217 850 q 1188 831 1197 850 l 767 0 l 722 0 l 653 692 l 293 0 l 249 0 l 181 831 q 160 850 178 850 l 111 850 l 115 875 l 346 875 l 342 850 l 276 850 l 333 163 l 647 765 l 640 831 q 619 850 638 850 l 571 850 l 575 875 l 807 875 l 803 850 l 736 850 l 806 167 l 1151 850 l 1086 850 l 1090 875 z "},"X":{"ha":678,"x_min":-76,"x_max":803,"o":"m 468 25 l 340 389 l 43 25 l 108 25 l 104 0 l -76 0 l -72 25 l -24 25 q 6 44 -11 25 l 325 433 l 188 831 q 167 850 181 850 l 117 850 l 121 875 l 353 875 l 349 850 l 282 850 l 401 507 l 683 850 l 618 850 l 622 875 l 803 875 l 799 850 l 750 850 q 721 833 735 850 l 417 464 l 564 44 q 585 25 571 25 l 633 25 l 629 0 l 399 0 l 403 25 l 468 25 z "},"Y":{"ha":632,"x_min":85,"x_max":771,"o":"m 343 264 l 282 257 l 154 831 q 133 850 150 850 l 85 850 l 89 875 l 318 875 l 314 850 l 249 850 l 360 357 l 653 850 l 588 850 l 592 875 l 771 875 l 767 850 l 718 850 q 689 831 701 850 l 343 264 m 279 336 l 368 313 q 311 34 311 43 q 326 25 311 25 l 418 25 l 414 0 l 97 0 l 101 25 l 196 25 q 218 46 214 25 l 279 336 z "},"Z":{"ha":758,"x_min":0,"x_max":786,"o":"m 0 0 l 7 39 l 653 836 l 304 836 q 261 806 271 836 l 207 643 l 176 643 l 190 708 q 215 888 215 822 q 360 875 258 875 l 786 875 l 778 836 l 133 39 l 508 39 q 553 69 543 39 l 607 232 l 638 232 l 624 167 q 599 -12 599 53 q 454 0 558 0 l 0 0 z "},"[":{"ha":347,"x_min":-11,"x_max":424,"o":"m 97 -104 l 96 -110 q 111 -124 96 -124 l 213 -124 l 207 -149 l 103 -149 q -11 -157 25 -149 l 211 883 q 319 875 242 875 l 424 875 l 419 850 l 318 850 q 296 831 299 850 l 97 -104 z "},"\\":{"ha":443,"x_min":25,"x_max":418,"o":"m 418 -103 l 372 -103 l 25 900 l 72 900 l 418 -103 z "},"]":{"ha":347,"x_min":-58,"x_max":376,"o":"m 72 -104 l 271 831 l 271 833 q 257 850 271 850 l 154 850 l 158 875 l 264 875 q 376 883 343 875 l 154 -157 q 47 -149 126 -149 l -58 -149 l -53 -124 l 50 -124 q 72 -104 67 -124 z "},"^":{"ha":701,"x_min":133,"x_max":644,"o":"m 533 894 l 644 375 l 572 375 l 482 811 l 207 375 l 133 375 l 464 894 l 533 894 z "},"_":{"ha":564,"x_min":47,"x_max":515,"o":"m 47 -71 l 58 -17 l 515 -17 l 504 -71 l 47 -71 z "},"`":{"ha":322,"x_min":43,"x_max":281,"o":"m 263 679 l 81 786 q 43 842 43 807 q 54 874 43 861 q 87 888 65 888 q 126 868 108 888 l 281 701 l 263 679 z "},"a":{"ha":694,"x_min":56,"x_max":650,"o":"m 618 590 q 526 281 569 446 q 483 69 483 115 q 518 22 483 22 q 575 58 544 22 q 628 158 606 93 l 650 153 q 494 -17 590 -17 q 408 88 408 -17 q 415 154 408 108 l 408 154 q 208 -17 322 -17 q 99 41 143 -17 q 56 183 56 99 q 78 339 56 267 q 140 474 100 411 q 247 577 181 538 q 393 617 314 617 q 556 529 496 617 l 599 604 l 618 590 m 242 25 q 360 115 300 25 q 486 456 428 219 q 506 536 499 511 q 394 583 457 583 q 281 540 331 583 q 204 432 232 497 q 147 181 147 299 q 173 64 147 103 q 242 25 199 25 z "},"b":{"ha":649,"x_min":51,"x_max":621,"o":"m 179 239 l 190 239 l 213 300 q 468 617 329 617 q 577 559 533 617 q 621 417 621 501 q 599 261 621 333 q 536 126 576 189 q 429 23 496 63 q 293 -17 363 -17 q 174 10 224 -17 q 96 82 124 38 l 108 119 q 279 14 175 14 q 417 87 358 14 q 499 248 475 160 q 524 410 524 336 q 499 524 524 485 q 443 564 475 564 q 379 537 411 564 q 310 453 347 510 q 158 43 229 328 l 117 88 l 75 -17 l 51 -8 l 269 861 l 181 854 l 179 878 q 358 913 275 890 l 378 899 q 179 239 265 571 z "},"c":{"ha":551,"x_min":56,"x_max":531,"o":"m 383 583 q 278 540 326 583 q 203 433 231 497 q 147 200 147 299 q 258 17 147 17 q 460 167 396 17 l 482 161 q 385 30 449 76 q 243 -17 322 -17 q 110 42 164 -17 q 56 199 56 100 q 93 390 56 297 q 210 549 131 482 q 390 617 289 617 q 495 581 460 617 q 531 497 531 546 q 513 408 531 447 q 459 369 496 369 q 404 392 422 369 q 444 511 444 453 q 383 583 444 583 z "},"d":{"ha":694,"x_min":56,"x_max":699,"o":"m 483 68 q 518 22 483 22 q 575 58 544 22 q 628 158 606 93 l 650 153 q 494 -17 590 -17 q 408 92 408 -17 q 590 861 408 201 l 501 854 l 500 878 q 679 913 596 890 l 699 899 q 562 435 640 728 q 483 68 483 143 m 422 154 l 408 154 q 208 -17 322 -17 q 99 41 143 -17 q 56 183 56 99 q 78 339 56 267 q 140 474 100 411 q 247 577 181 538 q 383 617 314 617 q 572 500 517 617 l 553 475 q 390 583 488 583 q 281 540 331 583 q 204 432 232 497 q 147 181 147 299 q 173 64 147 103 q 242 25 199 25 q 364 126 301 25 q 475 414 426 226 l 422 154 z "},"e":{"ha":551,"x_min":56,"x_max":538,"o":"m 390 617 q 501 581 464 617 q 538 480 538 546 q 486 365 538 414 q 226 282 399 282 q 138 290 175 282 l 138 317 q 218 310 186 310 q 397 368 333 310 q 460 496 460 426 q 440 558 460 533 q 373 583 419 583 q 278 540 326 583 q 203 433 231 497 q 147 200 147 299 q 258 17 147 17 q 460 167 396 17 l 482 161 q 385 30 449 76 q 243 -17 322 -17 q 110 42 164 -17 q 56 199 56 100 q 93 390 56 297 q 210 549 131 482 q 390 617 289 617 z "},"f":{"ha":403,"x_min":-174,"x_max":611,"o":"m 72 550 l 79 576 l 429 576 l 422 550 l 72 550 m 308 654 l 178 44 q 79 -228 138 -139 q -62 -317 21 -317 q -144 -285 -115 -317 q -174 -213 -174 -253 q -158 -142 -174 -174 q -107 -111 -142 -111 q -57 -129 -72 -111 q -87 -171 -75 -143 q -99 -225 -99 -199 q -49 -285 -99 -285 q 36 -199 7 -285 q 117 147 65 -112 l 197 558 q 300 811 226 706 q 471 917 374 917 q 576 885 540 917 q 611 810 611 853 q 594 732 611 767 q 539 697 576 697 q 485 717 501 697 q 525 821 525 768 q 465 885 525 885 q 368 824 404 885 q 308 654 332 764 z "},"g":{"ha":592,"x_min":-33,"x_max":550,"o":"m 154 81 l 375 31 q 478 -15 447 14 q 508 -93 508 -43 q 420 -245 508 -174 q 219 -317 332 -317 q 37 -265 107 -317 q -33 -143 -33 -214 q -1 -50 -33 -94 q 96 25 32 -6 l 124 17 q 60 -47 82 -4 q 38 -136 38 -89 q 89 -252 38 -214 q 222 -290 140 -290 q 372 -244 303 -290 q 440 -132 440 -197 q 356 -47 440 -67 l 117 6 q 54 43 76 14 q 32 114 32 72 q 67 190 32 156 q 163 225 101 225 l 303 225 l 299 206 l 163 206 q 116 188 133 206 q 99 144 99 169 q 154 81 99 93 m 388 597 l 386 617 q 451 635 425 617 q 478 685 478 654 q 433 743 478 715 q 487 790 456 790 q 534 772 518 790 q 550 726 550 754 q 506 638 550 678 q 388 597 463 597 m 133 357 q 206 538 133 460 q 386 617 279 617 q 505 577 461 617 q 549 465 549 538 q 474 277 549 349 q 299 206 399 206 q 178 245 222 206 q 133 357 133 285 m 385 590 q 260 506 308 590 q 211 357 211 422 q 235 262 211 292 q 300 232 260 232 q 417 301 361 232 q 472 476 472 371 q 448 560 472 529 q 385 590 424 590 z "},"h":{"ha":688,"x_min":51,"x_max":643,"o":"m 149 0 l 51 -8 l 269 861 l 181 854 l 179 878 q 358 913 275 890 l 378 899 q 179 239 265 571 l 190 239 l 213 300 q 375 572 288 510 q 444 608 417 600 q 512 617 471 617 q 582 583 553 617 q 611 490 611 550 q 544 271 611 431 q 476 67 476 111 q 511 22 476 22 q 568 58 538 22 q 621 158 599 93 l 643 153 q 488 -17 583 -17 q 401 78 401 -17 q 465 278 401 118 q 528 483 528 438 q 464 571 528 571 q 314 458 394 571 q 149 0 221 324 z "},"i":{"ha":383,"x_min":97,"x_max":361,"o":"m 254 756 q 245 765 254 756 q 236 800 236 774 q 254 844 236 826 q 299 863 272 863 q 343 844 325 863 q 361 800 361 826 q 343 756 361 774 q 299 738 325 738 q 254 756 272 738 m 97 88 q 199 553 97 161 l 110 546 l 108 569 q 288 604 204 582 l 307 590 q 215 281 258 446 q 172 69 172 115 q 207 22 172 22 q 264 58 233 22 q 317 158 294 93 l 339 153 q 183 -17 279 -17 q 97 88 97 -17 z "},"j":{"ha":347,"x_min":-174,"x_max":361,"o":"m 254 756 q 245 765 254 756 q 236 800 236 774 q 254 844 236 826 q 299 863 272 863 q 343 844 325 863 q 361 800 361 826 q 343 756 361 774 q 299 738 325 738 q 254 756 272 738 m 199 553 l 110 546 l 108 569 q 288 604 204 582 l 307 590 l 175 44 q 74 -229 129 -142 q -62 -317 19 -317 q -144 -285 -115 -317 q -174 -213 -174 -253 q -158 -142 -174 -174 q -107 -111 -142 -111 q -57 -129 -72 -111 q -87 -171 -75 -143 q -99 -225 -99 -199 q -49 -285 -99 -285 q 36 -199 7 -285 q 117 147 65 -112 l 199 553 z "},"k":{"ha":650,"x_min":51,"x_max":610,"o":"m 225 306 l 231 324 l 286 324 q 469 384 401 324 q 536 510 536 444 q 519 558 536 539 q 470 576 503 576 q 399 549 438 576 q 318 461 361 522 q 149 0 224 325 l 51 -8 l 269 861 l 181 854 l 179 878 q 358 913 275 890 l 378 899 q 179 239 265 571 l 190 239 l 214 300 q 356 550 285 483 q 507 617 428 617 q 583 590 556 617 q 610 521 610 563 q 526 371 610 440 q 294 301 442 301 q 225 306 256 301 m 225 301 l 256 317 q 406 268 369 317 q 442 68 442 219 q 476 22 442 22 q 533 58 503 22 q 586 158 564 93 l 608 153 q 453 -17 549 -17 q 383 8 408 -17 q 358 92 358 33 q 352 194 358 150 q 320 270 346 238 q 247 303 294 303 q 225 301 232 303 m 340 285 l 340 315 l 365 315 l 360 285 l 340 285 z "},"l":{"ha":369,"x_min":83,"x_max":374,"o":"m 158 68 q 193 22 158 22 q 250 58 219 22 q 303 158 281 93 l 325 153 q 169 -17 265 -17 q 83 92 83 -17 q 265 861 83 201 l 176 854 l 175 878 q 354 913 271 890 l 374 899 q 237 435 315 728 q 158 68 158 143 z "},"m":{"ha":1022,"x_min":63,"x_max":978,"o":"m 499 0 l 400 -8 l 450 182 q 476 276 458 214 q 501 372 493 339 q 525 496 525 464 q 509 549 525 528 q 461 571 493 571 q 310 431 392 571 q 160 0 228 290 l 63 -8 l 199 553 l 110 546 l 108 569 q 288 604 204 582 l 307 590 q 190 239 240 438 l 201 239 l 224 300 q 363 547 289 478 q 500 617 436 617 q 597 507 597 617 q 557 326 597 443 l 528 239 l 540 239 l 563 300 q 725 572 638 510 q 794 608 767 600 q 858 617 821 617 q 921 583 896 617 q 946 490 946 550 q 878 271 946 431 q 811 67 811 111 q 846 22 811 22 q 903 58 872 22 q 956 158 933 93 l 978 153 q 822 -17 918 -17 q 736 78 736 -17 q 799 278 736 118 q 863 496 863 438 q 814 571 863 571 q 664 458 744 571 q 499 0 571 324 z "},"n":{"ha":699,"x_min":63,"x_max":654,"o":"m 622 490 q 622 460 622 490 q 555 271 622 431 q 488 67 488 111 q 522 22 488 22 q 579 58 549 22 q 632 158 610 93 l 654 153 q 499 -17 594 -17 q 413 78 413 -17 q 476 278 413 118 q 539 483 539 438 q 475 571 539 571 q 325 458 406 571 q 160 0 232 324 l 63 -8 l 199 553 l 110 546 l 108 569 q 288 604 204 582 l 307 590 q 190 239 240 438 l 201 239 l 224 300 q 386 572 299 510 q 455 608 428 600 q 523 617 482 617 q 593 583 564 617 q 622 490 622 550 z "},"o":{"ha":639,"x_min":56,"x_max":583,"o":"m 56 201 q 139 475 56 344 q 244 577 179 538 q 394 617 310 617 q 531 560 478 617 q 583 404 583 503 q 547 213 583 306 q 433 51 511 119 q 258 -17 356 -17 q 108 40 161 -17 q 56 201 56 97 m 382 586 q 249 511 307 586 q 167 347 192 436 q 143 181 143 258 q 174 59 143 104 q 260 14 206 14 q 363 58 315 14 q 439 168 411 103 q 496 399 496 301 q 465 542 496 497 q 382 586 435 586 z "},"p":{"ha":661,"x_min":-10,"x_max":633,"o":"m 289 604 l 308 590 q 192 239 242 438 l 203 239 l 225 300 q 489 617 340 617 q 591 558 549 617 q 633 417 633 500 q 612 262 633 333 q 550 128 590 190 q 444 28 510 67 q 300 -11 379 -11 q 111 96 179 -11 l 121 119 q 296 18 188 18 q 408 60 358 18 q 483 164 457 101 q 536 414 536 292 q 516 524 536 485 q 464 564 496 564 q 317 438 399 564 q 171 43 236 311 l 88 -300 l -10 -308 l 200 553 l 111 546 l 110 569 q 289 604 206 582 z "},"q":{"ha":640,"x_min":56,"x_max":625,"o":"m 518 557 l 560 513 l 601 617 l 625 608 l 390 -261 l 479 -254 l 481 -278 q 301 -312 385 -290 l 282 -299 l 415 154 l 408 154 q 208 -17 319 -17 q 99 41 143 -17 q 56 183 56 99 q 78 339 56 267 q 140 474 100 411 q 247 577 181 538 q 383 617 314 617 q 503 590 453 617 q 581 518 553 563 l 568 481 q 397 582 501 582 q 285 540 336 582 q 206 436 235 499 q 147 186 147 304 q 174 67 147 110 q 239 25 200 25 q 378 151 306 25 q 518 557 451 276 z "},"r":{"ha":515,"x_min":63,"x_max":557,"o":"m 288 604 l 307 590 q 190 239 240 438 l 201 239 l 224 300 q 353 547 289 478 q 464 617 417 617 q 534 586 511 617 q 557 507 557 556 q 539 422 557 458 q 487 386 521 386 q 431 408 453 386 q 457 461 444 426 q 469 522 469 496 q 436 563 469 563 q 350 494 401 563 q 160 0 238 347 l 63 -8 l 199 553 l 110 546 l 108 569 q 288 604 204 582 z "},"s":{"ha":526,"x_min":35,"x_max":492,"o":"m 322 583 q 295 583 322 583 q 231 553 268 583 q 193 475 193 522 q 232 389 193 428 q 317 324 271 350 q 401 257 363 299 q 440 168 440 215 q 372 31 440 79 q 206 -17 303 -17 q 35 29 108 -17 q 79 193 58 76 l 103 189 q 93 99 93 132 q 124 40 93 67 q 215 13 156 13 q 315 49 274 13 q 356 143 356 85 q 319 216 356 181 q 238 275 282 251 q 158 342 194 299 q 121 436 121 385 q 181 565 121 513 q 340 617 242 617 q 492 579 417 617 q 469 510 485 564 q 444 407 453 456 l 421 411 q 429 497 429 456 q 402 560 429 538 q 322 583 375 583 z "},"t":{"ha":383,"x_min":93,"x_max":408,"o":"m 93 550 l 100 576 l 408 576 l 401 550 l 93 550 m 314 747 l 333 733 q 248 428 301 636 q 183 159 194 219 q 172 68 172 99 q 207 22 172 22 q 264 58 233 22 q 317 158 294 93 l 339 153 q 183 -17 279 -17 q 97 88 97 -17 q 200 568 97 174 l 100 576 q 224 613 176 576 q 314 747 271 650 z "},"u":{"ha":718,"x_min":100,"x_max":674,"o":"m 432 88 q 439 154 432 108 l 432 154 q 226 -17 343 -17 q 101 122 101 -17 q 165 457 101 213 l 190 553 l 101 546 l 100 569 q 279 604 196 582 l 299 590 q 182 126 182 228 q 258 25 182 25 q 384 119 322 25 q 486 371 446 213 l 533 553 l 444 546 l 443 569 q 622 604 539 582 l 642 590 q 550 281 593 446 q 507 69 507 115 q 542 22 507 22 q 599 58 568 22 q 651 158 629 93 l 674 153 q 518 -17 614 -17 q 432 88 432 -17 z "},"v":{"ha":621,"x_min":54,"x_max":586,"o":"m 278 29 q 451 158 367 29 q 536 396 536 288 q 471 588 536 504 q 533 617 506 617 q 574 582 561 617 q 586 488 586 547 q 563 342 586 429 q 497 173 539 254 q 386 38 456 92 q 238 -17 317 -17 q 155 19 186 -17 q 124 115 124 54 q 170 329 124 176 q 217 530 217 482 q 181 578 217 578 q 125 542 154 578 q 78 442 96 507 l 54 447 q 203 617 106 617 q 293 519 293 617 q 250 326 293 481 q 207 124 207 172 q 278 29 207 29 z "},"w":{"ha":926,"x_min":54,"x_max":892,"o":"m 497 275 l 518 276 q 238 -17 418 -17 q 155 19 186 -17 q 124 115 124 54 q 170 329 124 176 q 217 530 217 482 q 181 578 217 578 q 125 542 154 578 q 78 442 96 507 l 54 447 q 203 617 106 617 q 293 519 293 617 q 250 326 293 481 q 207 124 207 172 q 275 29 207 29 q 400 103 338 29 q 497 275 463 176 m 560 -17 q 475 19 507 -17 q 443 110 443 54 q 485 290 443 165 q 528 477 528 414 q 496 588 528 540 q 558 617 531 617 q 599 582 586 617 q 611 491 611 547 q 569 301 611 435 q 526 121 526 167 q 593 29 526 29 q 760 158 678 29 q 842 396 842 288 q 776 588 842 504 q 839 617 811 617 q 879 582 867 617 q 892 488 892 547 q 870 341 892 428 q 809 173 849 254 q 703 38 769 92 q 560 -17 638 -17 z "},"x":{"ha":640,"x_min":28,"x_max":626,"o":"m 226 617 q 317 556 282 617 q 365 407 351 494 q 388 232 378 319 q 465 22 411 22 q 522 58 492 22 q 575 158 553 93 l 597 153 q 442 -17 538 -17 q 351 44 386 -17 q 303 193 317 106 q 281 368 290 281 q 203 578 257 578 q 146 542 176 578 q 93 442 115 507 l 71 447 q 226 617 131 617 m 253 213 l 304 301 l 339 304 l 272 188 q 69 -17 157 -17 q 28 58 28 -17 q 253 213 171 71 m 401 388 l 350 299 l 315 296 l 382 413 q 585 617 497 617 q 626 542 626 617 q 401 388 483 529 z "},"y":{"ha":656,"x_min":-61,"x_max":589,"o":"m 278 29 q 455 159 367 29 q 543 402 543 289 q 471 588 543 515 q 535 617 506 617 q 589 464 589 617 q 556 184 589 311 q 469 -32 522 57 q 347 -186 415 -121 q 79 -317 215 -317 q -26 -285 10 -317 q -61 -210 -61 -253 q -44 -132 -61 -167 q 8 -97 -26 -97 q 65 -117 43 -97 q 25 -211 25 -168 q 99 -281 25 -281 q 211 -245 147 -281 q 340 -145 275 -210 q 460 28 406 -81 q 538 263 515 136 q 415 63 492 142 q 238 -17 338 -17 q 155 19 186 -17 q 124 115 124 54 q 170 329 124 176 q 217 530 217 482 q 181 578 217 578 q 125 542 154 578 q 78 442 96 507 l 54 447 q 203 617 106 617 q 293 519 293 617 q 250 326 293 481 q 207 124 207 172 q 278 29 207 29 z "},"z":{"ha":515,"x_min":-6,"x_max":508,"o":"m 486 608 l 508 603 q 468 507 497 539 l 115 124 q 215 93 143 122 q 326 64 286 64 q 426 175 407 64 l 453 171 q 338 -17 433 -17 q 201 28 279 -17 q 90 72 122 72 q 15 -17 42 72 l -6 -10 q 47 99 18 65 l 403 486 q 315 513 379 488 q 213 538 251 538 q 113 432 132 538 l 86 436 q 201 617 106 617 q 331 578 261 617 q 421 539 401 539 q 486 608 467 539 z "},"{":{"ha":381,"x_min":63,"x_max":439,"o":"m 178 365 l 178 360 q 231 306 231 360 q 203 173 231 283 q 175 -10 175 63 q 228 -136 175 -82 l 208 -157 q 89 74 89 -82 q 109 247 89 167 q 129 335 129 328 q 115 350 129 350 l 63 350 l 68 375 l 121 375 q 143 394 139 375 l 160 474 q 319 808 208 706 q 429 882 365 851 l 439 861 q 315 692 347 796 q 285 561 300 640 q 264 447 271 482 q 178 365 246 365 z "},"|":{"ha":328,"x_min":114,"x_max":214,"o":"m 114 -149 l 114 875 l 214 875 l 214 -149 l 114 -149 z "},"}":{"ha":354,"x_min":-46,"x_max":331,"o":"m 215 360 l 215 365 q 163 419 163 365 q 190 552 163 442 q 218 735 218 663 q 165 861 218 807 l 185 882 q 304 651 304 807 q 284 483 304 569 q 264 390 264 397 q 278 375 264 375 l 331 375 l 325 350 l 272 350 q 250 331 256 350 l 233 251 q 75 -83 185 19 q -36 -157 28 -126 l -46 -136 q 78 33 46 -71 q 108 164 93 85 q 129 278 122 243 q 215 360 147 360 z "},"~":{"ha":701,"x_min":100,"x_max":640,"o":"m 624 338 l 640 292 q 472 228 561 228 q 353 245 431 228 q 224 263 275 263 q 118 228 174 263 l 100 274 q 263 335 176 335 q 384 317 306 335 q 512 300 463 300 q 624 338 561 300 z "},"¡":{"ha":361,"x_min":4,"x_max":299,"o":"m 181 364 l 214 364 q 132 -210 154 -46 q 103 -269 126 -247 q 51 -292 81 -292 q 4 -240 4 -292 q 35 -113 4 -211 q 111 127 65 -15 q 181 364 157 269 m 278 597 q 289 588 278 597 q 299 550 299 578 q 278 503 299 522 q 232 483 258 483 q 185 503 206 483 q 165 550 165 522 q 185 597 165 578 q 232 617 206 617 q 278 597 258 617 z "},"¢":{"ha":572,"x_min":50,"x_max":550,"o":"m 251 -76 l 210 -76 l 244 90 q 103 155 156 97 q 50 310 50 213 q 148 578 50 472 q 374 697 246 685 l 408 863 l 450 863 l 415 697 q 517 661 485 694 q 550 582 550 628 q 533 498 550 536 q 480 460 517 460 q 425 481 443 460 q 461 588 461 539 q 393 664 461 664 q 226 559 303 664 q 150 290 150 454 q 183 167 150 211 q 280 124 217 124 q 401 161 343 124 q 490 267 458 199 l 515 260 q 419 140 482 185 q 286 89 357 94 l 251 -76 z "},"£":{"ha":611,"x_min":-28,"x_max":613,"o":"m 163 233 l 158 433 q 188 597 158 524 q 264 714 218 671 q 463 804 358 804 q 576 770 540 804 q 613 683 613 736 q 594 592 613 631 q 542 554 575 554 q 485 575 508 554 q 525 685 525 631 q 446 765 525 765 q 313 688 367 765 q 258 426 258 611 q 219 133 258 261 q 153 24 197 64 q 44 -17 108 -17 q -10 3 8 -17 q -28 55 -28 24 q 3 116 -28 86 q 77 146 33 146 q 217 113 121 146 q 369 79 313 79 q 518 206 468 79 l 550 200 q 465 32 513 81 q 363 -17 418 -17 q 265 3 308 -17 q 197 49 221 24 q 72 114 133 114 q 24 94 43 114 q 6 51 6 75 q 49 11 6 11 q 127 65 92 11 q 163 233 163 118 m 447 386 l 438 343 l 49 343 l 58 386 l 447 386 z "},"¤":{"ha":643,"x_min":36,"x_max":607,"o":"m 156 294 l 207 242 l 89 124 l 36 175 l 156 294 m 485 519 l 432 571 l 556 694 l 607 642 l 485 519 m 194 536 q 168 510 194 536 q 142 408 142 483 q 194 281 142 333 q 322 228 247 228 q 450 281 397 228 q 503 408 503 333 q 450 536 503 483 q 322 589 397 589 q 194 536 247 589 m 165 251 q 133 284 165 251 q 100 408 100 317 q 165 565 100 500 q 322 631 231 631 q 479 565 414 631 q 544 408 544 500 q 479 251 544 317 q 322 186 414 186 q 165 251 231 186 m 436 243 l 489 294 l 607 176 l 556 124 l 436 243 m 211 572 l 160 519 l 36 643 l 89 694 l 211 572 z "},"¥":{"ha":611,"x_min":72,"x_max":700,"o":"m 576 386 l 567 343 l 392 343 l 354 283 q 303 39 303 42 q 318 25 303 25 l 424 25 l 419 0 l 75 0 l 79 25 l 188 25 q 210 46 206 25 l 261 293 l 249 343 l 72 343 l 82 386 l 238 386 l 226 433 l 92 433 l 101 476 l 215 476 l 150 742 q 129 761 144 761 l 104 761 l 108 786 l 300 786 l 296 761 l 244 761 l 351 346 l 607 761 l 563 761 l 567 786 l 700 786 l 696 761 l 672 761 q 643 742 656 761 l 475 476 l 596 476 l 586 433 l 449 433 l 418 386 l 576 386 z "},"¦":{"ha":328,"x_min":114,"x_max":214,"o":"m 114 508 l 114 875 l 214 875 l 214 508 l 114 508 m 114 -149 l 114 218 l 214 218 l 214 -149 l 114 -149 z "},"§":{"ha":613,"x_min":21,"x_max":613,"o":"m 206 340 l 219 368 l 371 279 q 463 185 429 244 q 497 68 497 126 q 426 -94 497 -25 q 241 -162 356 -162 q 74 -110 126 -162 q 21 5 21 -58 q 47 106 21 68 q 115 144 72 144 q 183 115 158 144 q 124 -7 124 79 q 152 -81 124 -51 q 248 -111 181 -111 q 358 -58 315 -111 q 401 65 401 -6 q 368 198 401 135 q 281 294 335 261 l 206 340 m 428 389 l 414 361 l 263 450 q 170 544 204 485 q 136 661 136 603 q 207 823 136 754 q 392 892 278 892 q 560 840 507 892 q 613 724 613 788 q 587 623 613 661 q 518 585 561 585 q 450 614 475 585 q 510 736 510 650 q 481 810 510 781 q 385 840 453 840 q 275 788 318 840 q 232 665 232 735 q 265 531 232 594 q 353 435 299 468 l 428 389 z "},"¨":{"ha":431,"x_min":42,"x_max":389,"o":"m 60 756 q 51 765 60 756 q 42 800 42 774 q 60 844 42 826 q 104 863 78 863 q 149 844 131 863 q 167 800 167 826 q 149 756 167 774 q 104 738 131 738 q 60 756 78 738 m 282 756 q 273 765 282 756 q 264 800 264 774 q 282 844 264 826 q 326 863 300 863 q 371 844 353 863 q 389 800 389 826 q 371 756 389 774 q 326 738 353 738 q 282 756 300 738 z "},"©":{"ha":763,"x_min":97,"x_max":753,"o":"m 488 390 q 469 381 485 390 q 364 353 421 353 q 266 395 307 353 q 225 514 225 438 q 301 728 225 646 q 474 810 376 810 q 536 794 506 810 q 571 778 567 778 q 588 792 581 778 l 593 807 l 608 807 l 581 676 l 565 676 l 565 688 q 538 756 565 735 q 468 778 511 778 q 349 701 404 778 q 294 506 294 624 q 318 415 294 447 q 385 383 342 383 q 467 408 428 383 q 525 485 507 433 l 540 485 l 514 361 l 499 361 l 499 376 q 488 390 499 390 m 97 508 q 219 788 97 660 q 497 917 340 917 q 681 842 610 917 q 753 656 753 768 q 629 369 753 494 q 354 244 506 244 q 169 319 242 244 q 97 508 97 394 m 132 508 q 194 344 132 410 q 354 279 257 279 q 605 394 492 279 q 718 656 718 508 q 656 817 718 753 q 497 882 594 882 q 242 765 353 882 q 132 508 132 647 z "},"ª":{"ha":510,"x_min":97,"x_max":456,"o":"m 444 879 q 390 694 415 792 q 365 571 365 597 q 380 544 365 544 q 411 565 394 544 q 440 625 428 586 l 456 622 q 415 544 436 567 q 363 521 393 521 q 308 583 308 521 q 310 603 308 596 l 304 603 q 194 521 261 521 q 125 556 153 521 q 97 649 97 590 q 153 820 97 740 q 301 900 208 900 q 403 849 361 900 l 428 892 l 444 879 m 214 546 q 368 853 299 546 q 299 881 340 881 q 225 836 258 881 q 164 649 164 753 q 214 546 164 546 z "},"«":{"ha":521,"x_min":46,"x_max":525,"o":"m 243 313 l 247 329 l 508 567 l 525 547 l 354 321 l 429 94 l 404 75 l 243 313 m 46 313 l 50 329 l 311 567 l 329 547 l 157 321 l 233 94 l 207 75 l 46 313 z "},"¬":{"ha":701,"x_min":103,"x_max":636,"o":"m 583 61 l 514 61 l 551 236 l 103 236 l 118 310 l 636 310 l 583 61 z "},"®":{"ha":763,"x_min":97,"x_max":753,"o":"m 97 508 q 219 788 97 660 q 497 917 340 917 q 681 842 610 917 q 753 656 753 768 q 629 369 753 494 q 354 244 506 244 q 169 319 242 244 q 97 508 97 394 m 393 383 l 389 364 l 228 364 l 232 383 l 254 383 q 278 400 274 383 q 356 773 356 761 q 340 785 356 785 l 318 785 l 322 804 l 482 804 q 564 778 532 804 q 596 703 596 751 q 565 617 596 654 q 486 564 535 581 l 533 396 q 547 383 539 383 l 563 383 l 558 364 l 521 364 q 469 358 492 364 l 417 554 l 378 554 q 346 397 346 401 q 360 383 346 383 l 393 383 m 472 775 l 425 775 l 385 585 l 432 585 q 501 624 474 585 q 528 708 528 663 q 472 775 528 775 m 132 508 q 194 344 132 410 q 354 279 257 279 q 605 394 492 279 q 718 656 718 508 q 656 817 718 753 q 497 882 594 882 q 242 765 353 882 q 132 508 132 647 z "},"¯":{"ha":418,"x_min":42,"x_max":376,"o":"m 42 774 l 57 849 l 376 849 l 361 774 l 42 774 z "},"°":{"ha":358,"x_min":125,"x_max":414,"o":"m 125 734 q 125 764 125 734 q 170 840 125 793 q 274 888 215 888 q 374 849 333 888 q 414 751 414 811 q 368 644 414 692 q 261 597 322 597 q 163 636 200 597 q 125 734 125 675 m 365 750 q 365 770 365 750 q 340 815 365 790 q 275 840 314 840 q 205 808 236 840 q 174 735 174 775 q 197 669 174 694 q 262 644 221 644 q 334 677 303 644 q 365 750 365 710 z "},"±":{"ha":701,"x_min":53,"x_max":665,"o":"m 490 683 l 440 449 l 665 449 l 650 375 l 425 375 l 375 139 l 306 139 l 356 375 l 132 375 l 147 449 l 371 449 l 421 683 l 490 683 m 571 0 l 53 0 l 68 74 l 586 74 l 571 0 z "},"²":{"ha":406,"x_min":6,"x_max":408,"o":"m 328 710 q 263 778 328 778 q 207 747 228 778 q 186 678 186 717 q 189 656 186 669 q 140 642 169 642 q 110 675 110 642 q 156 765 110 726 q 271 804 201 804 q 374 777 340 804 q 408 708 408 750 q 376 625 408 668 q 299 538 343 579 q 250 490 256 496 l 115 358 l 286 358 q 306 374 300 358 l 332 453 l 358 453 l 349 407 q 332 285 338 357 q 232 296 293 296 l 6 296 l 231 519 q 304 623 281 569 q 328 710 328 676 z "},"³":{"ha":406,"x_min":14,"x_max":361,"o":"m 107 539 l 110 563 l 147 569 q 248 627 211 581 q 285 726 285 674 q 238 778 285 778 q 190 753 208 778 q 171 705 171 729 q 175 665 171 681 q 124 647 153 647 q 96 683 96 647 q 142 772 96 740 q 240 804 189 804 q 326 780 290 804 q 361 715 361 756 q 327 631 361 674 q 238 567 293 589 q 310 530 285 558 q 335 464 335 501 q 274 340 335 394 q 125 285 214 285 q 41 308 68 285 q 14 367 14 332 q 27 425 14 401 q 65 449 40 449 q 107 432 90 449 q 81 361 81 397 q 132 313 81 313 q 219 358 183 313 q 256 451 256 403 q 153 544 256 544 q 107 539 133 544 z "},"´":{"ha":322,"x_min":42,"x_max":279,"o":"m 242 786 l 60 679 l 42 701 l 196 868 q 235 888 214 888 q 268 874 257 888 q 279 842 279 861 q 242 786 279 807 z "},"µ":{"ha":718,"x_min":28,"x_max":642,"o":"m 556 11 l 546 -17 q 432 88 432 -17 q 439 154 432 108 l 432 154 q 226 -17 343 -17 q 117 50 143 -17 q 100 -83 100 -36 q 169 -249 100 -190 q 121 -285 151 -271 q 71 -300 90 -300 q 28 -227 28 -300 q 84 101 28 -154 q 190 553 140 357 l 101 546 l 100 569 q 279 604 196 582 l 299 590 q 182 126 182 228 q 258 25 182 25 q 383 116 324 25 q 486 371 443 207 l 533 553 l 444 546 l 443 569 q 622 604 539 582 l 642 590 q 550 281 593 446 q 507 63 507 115 q 556 11 507 11 z "},"¶":{"ha":594,"x_min":29,"x_max":672,"o":"m 583 831 l 381 -121 q 312 -253 361 -211 q 146 -308 263 -296 l 146 -275 q 285 -146 264 -250 l 497 850 l 397 850 q 185 768 263 850 q 108 590 108 686 q 133 501 108 532 q 201 471 158 471 q 281 515 243 471 q 319 628 319 558 q 315 663 319 646 q 379 683 339 683 q 411 638 411 683 q 344 489 411 544 q 199 433 276 433 q 76 473 122 433 q 29 589 29 513 q 129 784 29 693 q 388 875 229 875 l 672 875 l 668 850 l 606 850 q 583 831 589 850 z "},"·":{"ha":267,"x_min":60,"x_max":207,"o":"m 81 337 q 70 348 81 337 q 60 389 60 358 q 81 441 60 419 q 133 463 103 463 q 185 441 164 463 q 207 389 207 419 q 185 337 207 358 q 133 315 164 315 q 81 337 103 315 z "},"¸":{"ha":314,"x_min":28,"x_max":268,"o":"m 185 0 l 207 0 l 181 -64 q 246 -100 224 -72 q 268 -170 268 -128 q 226 -256 268 -212 q 115 -300 185 -300 q 53 -277 79 -300 q 28 -219 28 -254 q 43 -165 28 -183 q 81 -146 58 -146 q 114 -156 104 -146 q 90 -227 90 -185 q 131 -269 90 -269 q 182 -243 157 -269 q 207 -174 207 -217 q 142 -104 207 -117 l 185 0 z "},"¹":{"ha":406,"x_min":10,"x_max":322,"o":"m 218 725 q 219 732 218 726 q 204 743 219 743 l 103 738 l 108 764 q 322 810 272 789 q 289 701 304 772 q 211 330 211 339 q 226 321 211 321 l 290 321 l 285 296 l 10 296 l 15 321 l 113 321 q 136 340 131 321 l 218 725 z "},"º":{"ha":481,"x_min":97,"x_max":425,"o":"m 221 521 q 131 555 164 521 q 97 665 97 589 q 153 821 97 742 q 301 900 208 900 q 392 866 358 900 q 425 771 425 832 q 369 600 425 679 q 221 521 314 521 m 299 882 q 222 836 256 882 q 161 642 161 754 q 178 566 161 593 q 232 539 196 539 q 300 585 268 539 q 361 776 361 669 q 299 882 361 882 z "},"»":{"ha":521,"x_min":22,"x_max":501,"o":"m 304 329 l 300 313 l 39 75 l 22 94 l 194 321 l 118 547 l 143 567 l 304 329 m 501 329 l 497 313 l 236 75 l 219 94 l 392 321 l 315 547 l 340 567 l 501 329 z "},"¼":{"ha":1082,"x_min":39,"x_max":988,"o":"m 247 725 q 249 732 247 726 q 233 743 249 743 l 132 738 l 138 764 q 351 810 301 789 q 318 701 333 772 q 240 330 240 339 q 256 321 240 321 l 319 321 l 314 296 l 39 296 l 44 321 l 142 321 q 165 340 161 321 l 247 725 m 899 122 l 881 39 q 896 25 881 25 l 950 25 l 944 0 l 725 0 l 731 25 l 783 25 q 806 42 803 25 l 824 122 l 608 122 l 914 497 l 978 497 l 906 156 l 936 156 q 958 175 953 156 l 964 199 l 988 199 l 961 79 l 938 79 q 943 107 943 104 q 929 122 943 122 l 899 122 m 678 156 l 831 156 l 885 408 l 678 156 m 386 -103 l 343 -103 l 689 900 l 733 900 l 386 -103 z "},"½":{"ha":1082,"x_min":39,"x_max":1031,"o":"m 247 725 q 249 732 247 726 q 233 743 249 743 l 132 738 l 138 764 q 351 810 301 789 q 318 701 333 772 q 240 330 240 339 q 256 321 240 321 l 319 321 l 314 296 l 39 296 l 44 321 l 142 321 q 165 340 161 321 l 247 725 m 950 414 q 885 482 950 482 q 829 451 850 482 q 808 382 808 421 q 811 360 808 374 q 762 346 792 346 q 732 379 732 346 q 778 469 732 431 q 893 508 824 508 q 997 481 963 508 q 1031 413 1031 454 q 999 329 1031 372 q 922 242 965 283 q 872 194 878 200 l 738 63 l 908 63 q 928 78 922 63 l 954 157 l 981 157 l 971 111 q 954 -11 960 61 q 854 0 915 0 l 628 0 l 853 224 q 926 327 903 274 q 950 414 950 381 m 386 -103 l 343 -103 l 689 900 l 733 900 l 386 -103 z "},"¾":{"ha":1082,"x_min":43,"x_max":988,"o":"m 136 539 l 139 563 l 176 569 q 277 627 240 581 q 314 726 314 674 q 267 778 314 778 q 219 753 238 778 q 200 705 200 729 q 204 665 200 681 q 153 647 182 647 q 125 683 125 647 q 172 772 125 740 q 269 804 218 804 q 355 780 319 804 q 390 715 390 756 q 356 631 390 674 q 267 567 322 589 q 339 530 314 558 q 364 464 364 501 q 303 340 364 394 q 154 285 243 285 q 70 308 97 285 q 43 367 43 332 q 56 425 43 401 q 94 449 69 449 q 136 432 119 449 q 110 361 110 397 q 161 313 110 313 q 249 358 213 313 q 285 451 285 403 q 182 544 285 544 q 136 539 163 544 m 899 122 l 881 39 q 896 25 881 25 l 950 25 l 944 0 l 725 0 l 731 25 l 783 25 q 806 42 803 25 l 824 122 l 608 122 l 914 497 l 978 497 l 906 156 l 936 156 q 958 175 953 156 l 964 199 l 988 199 l 961 79 l 938 79 q 943 107 943 104 q 929 122 943 122 l 899 122 m 678 156 l 831 156 l 885 408 l 678 156 m 386 -103 l 343 -103 l 689 900 l 733 900 l 386 -103 z "},"¿":{"ha":388,"x_min":-90,"x_max":338,"o":"m 74 -262 q -42 -224 6 -262 q -90 -125 -90 -185 q -58 -19 -90 -65 q 19 64 -26 28 q 108 135 64 100 q 218 296 218 218 q 189 382 218 338 l 210 399 q 274 260 274 325 q 175 92 274 178 q 92 21 133 57 q -7 -142 -7 -67 q 19 -209 -7 -185 q 79 -233 44 -233 q 181 -187 144 -233 q 217 -75 217 -140 q 213 -40 217 -57 q 276 -19 236 -19 q 308 -65 308 -19 q 244 -203 308 -144 q 74 -262 179 -262 m 317 597 q 327 588 317 597 q 338 550 338 578 q 317 503 338 522 q 271 483 297 483 q 224 503 244 483 q 204 550 204 522 q 224 597 204 578 q 271 617 244 617 q 317 597 297 617 z "},"À":{"ha":708,"x_min":-111,"x_max":667,"o":"m 501 25 l 464 293 l 157 293 l 7 25 l 93 25 l 89 0 l -111 0 l -106 25 l -57 25 q -28 44 -37 25 l 439 875 l 483 875 l 597 44 q 618 25 600 25 l 667 25 l 663 0 l 411 0 l 415 25 l 501 25 m 404 733 l 178 332 l 458 332 l 404 733 m 586 954 l 404 1061 q 367 1117 367 1082 q 378 1149 367 1136 q 410 1163 389 1163 q 450 1143 432 1163 l 604 976 l 586 954 z "},"Á":{"ha":708,"x_min":-111,"x_max":667,"o":"m 501 25 l 464 293 l 157 293 l 7 25 l 93 25 l 89 0 l -111 0 l -106 25 l -57 25 q -28 44 -37 25 l 439 875 l 483 875 l 597 44 q 618 25 600 25 l 667 25 l 663 0 l 411 0 l 415 25 l 501 25 m 404 733 l 178 332 l 458 332 l 404 733 m 565 1061 l 383 954 l 365 976 l 519 1143 q 559 1163 538 1163 q 592 1149 581 1163 q 603 1117 603 1136 q 565 1061 603 1082 z "},"Â":{"ha":708,"x_min":-111,"x_max":667,"o":"m 501 25 l 464 293 l 157 293 l 7 25 l 93 25 l 89 0 l -111 0 l -106 25 l -57 25 q -28 44 -37 25 l 439 875 l 483 875 l 597 44 q 618 25 600 25 l 667 25 l 663 0 l 411 0 l 415 25 l 501 25 m 404 733 l 178 332 l 458 332 l 404 733 m 604 954 l 507 1072 l 365 954 l 347 976 l 465 1132 q 522 1163 490 1163 q 565 1131 553 1163 l 626 967 l 604 954 z "},"Ã":{"ha":708,"x_min":-111,"x_max":679,"o":"m 501 25 l 464 293 l 157 293 l 7 25 l 93 25 l 89 0 l -111 0 l -106 25 l -57 25 q -28 44 -37 25 l 439 875 l 483 875 l 597 44 q 618 25 600 25 l 667 25 l 663 0 l 411 0 l 415 25 l 501 25 m 404 733 l 178 332 l 458 332 l 404 733 m 654 1156 l 679 1146 q 619 1040 649 1069 q 563 1011 589 1011 q 492 1027 536 1011 q 424 1043 447 1043 q 383 1031 400 1043 q 342 981 365 1018 l 318 990 q 439 1124 369 1124 q 503 1108 458 1124 q 572 1092 547 1092 q 614 1105 597 1092 q 654 1156 631 1118 z "},"Ä":{"ha":708,"x_min":-111,"x_max":667,"o":"m 501 25 l 464 293 l 157 293 l 7 25 l 93 25 l 89 0 l -111 0 l -106 25 l -57 25 q -28 44 -37 25 l 439 875 l 483 875 l 597 44 q 618 25 600 25 l 667 25 l 663 0 l 411 0 l 415 25 l 501 25 m 404 733 l 178 332 l 458 332 l 404 733 m 333 1031 q 324 1040 333 1031 q 315 1075 315 1049 q 333 1119 315 1101 q 378 1138 351 1138 q 422 1119 404 1138 q 440 1075 440 1101 q 422 1031 440 1049 q 378 1013 404 1013 q 333 1031 351 1013 m 556 1031 q 547 1040 556 1031 q 538 1075 538 1049 q 556 1119 538 1101 q 600 1138 574 1138 q 644 1119 626 1138 q 663 1075 663 1101 q 644 1031 663 1049 q 600 1013 626 1013 q 556 1031 574 1013 z "},"Å":{"ha":708,"x_min":-111,"x_max":667,"o":"m 501 25 l 464 293 l 157 293 l 7 25 l 93 25 l 89 0 l -111 0 l -106 25 l -57 25 q -28 44 -37 25 l 439 875 l 483 875 l 597 44 q 618 25 600 25 l 667 25 l 663 0 l 411 0 l 415 25 l 501 25 m 404 733 l 178 332 l 458 332 l 404 733 m 490 960 q 464 960 490 960 q 413 983 439 960 q 386 1055 386 1006 q 428 1148 386 1104 q 522 1192 471 1192 q 626 1104 626 1192 q 583 999 626 1039 q 490 960 540 960 m 528 1165 q 508 1165 528 1165 q 468 1124 489 1165 q 447 1035 447 1083 q 486 986 447 986 q 540 1019 513 986 q 567 1094 567 1053 q 528 1165 567 1165 z "},"Æ":{"ha":988,"x_min":-229,"x_max":1001,"o":"m 508 397 l 431 32 l 738 32 q 781 63 771 32 l 839 232 l 869 232 l 856 167 q 829 -12 829 43 q 686 0 789 0 l 249 0 l 253 25 l 317 25 q 339 46 335 25 l 413 397 l 157 397 l -108 25 l -22 25 l -26 0 l -229 0 l -224 25 l -176 25 q -147 44 -161 25 l 415 822 q 425 842 425 835 q 415 850 425 850 l 369 850 l 374 875 l 851 875 q 1001 888 957 875 q 951 708 981 839 l 938 643 l 907 643 l 925 819 q 894 843 925 843 l 601 843 l 515 436 l 796 436 q 815 456 810 438 l 843 542 l 867 542 l 813 292 l 789 292 l 801 378 q 786 397 801 397 l 508 397 m 479 843 l 185 436 l 421 436 l 507 843 l 479 843 z "},"Ç":{"ha":763,"x_min":69,"x_max":818,"o":"m 607 19 l 608 31 q 593 49 608 49 q 550 33 582 49 q 368 -17 454 -17 q 150 67 231 -17 q 69 300 69 150 q 103 504 69 401 q 197 694 136 607 q 353 837 257 782 q 561 892 449 892 q 722 842 647 892 q 758 826 747 826 q 785 856 775 826 l 793 883 l 818 883 l 767 643 l 743 643 q 744 675 744 654 q 691 808 744 765 q 547 851 638 851 q 381 793 457 851 q 258 647 304 735 q 165 283 165 464 q 219 92 165 160 q 369 24 274 24 q 543 74 465 24 q 656 232 621 125 l 679 232 l 631 0 l 606 0 l 607 19 m 339 0 l 361 0 l 335 -64 q 400 -100 378 -72 q 422 -170 422 -128 q 381 -256 422 -212 q 269 -300 339 -300 q 208 -277 233 -300 q 182 -219 182 -254 q 197 -165 182 -183 q 235 -146 213 -146 q 268 -156 258 -146 q 244 -227 244 -185 q 285 -269 244 -269 q 336 -243 311 -269 q 361 -174 361 -217 q 296 -104 361 -117 l 339 0 z "},"È":{"ha":753,"x_min":14,"x_max":767,"o":"m 199 875 l 617 875 q 767 888 722 875 q 717 708 746 839 l 703 643 l 672 643 l 690 819 q 660 843 690 843 l 367 843 l 285 457 l 565 457 q 585 476 579 458 l 613 563 l 636 563 l 582 313 l 558 313 l 571 399 q 556 418 571 418 l 278 418 l 196 32 l 503 32 q 546 63 536 32 l 604 232 l 635 232 l 621 167 q 594 -12 594 43 q 451 0 554 0 l 14 0 l 18 25 l 82 25 q 104 46 100 25 q 271 842 271 835 q 256 850 271 850 l 194 850 l 199 875 m 624 954 l 442 1061 q 404 1117 404 1082 q 415 1149 404 1136 q 448 1163 426 1163 q 488 1143 469 1163 l 642 976 l 624 954 z "},"É":{"ha":753,"x_min":14,"x_max":767,"o":"m 199 875 l 617 875 q 767 888 722 875 q 717 708 746 839 l 703 643 l 672 643 l 690 819 q 660 843 690 843 l 367 843 l 285 457 l 565 457 q 585 476 579 458 l 613 563 l 636 563 l 582 313 l 558 313 l 571 399 q 556 418 571 418 l 278 418 l 196 32 l 503 32 q 546 63 536 32 l 604 232 l 635 232 l 621 167 q 594 -12 594 43 q 451 0 554 0 l 14 0 l 18 25 l 82 25 q 104 46 100 25 q 271 842 271 835 q 256 850 271 850 l 194 850 l 199 875 m 638 1061 l 456 954 l 438 976 l 592 1143 q 631 1163 610 1163 q 664 1149 653 1163 q 675 1117 675 1136 q 638 1061 675 1082 z "},"Ê":{"ha":753,"x_min":14,"x_max":767,"o":"m 199 875 l 617 875 q 767 888 722 875 q 717 708 746 839 l 703 643 l 672 643 l 690 819 q 660 843 690 843 l 367 843 l 285 457 l 565 457 q 585 476 579 458 l 613 563 l 636 563 l 582 313 l 558 313 l 571 399 q 556 418 571 418 l 278 418 l 196 32 l 503 32 q 546 63 536 32 l 604 232 l 635 232 l 621 167 q 594 -12 594 43 q 451 0 554 0 l 14 0 l 18 25 l 82 25 q 104 46 100 25 q 271 842 271 835 q 256 850 271 850 l 194 850 l 199 875 m 656 954 l 558 1072 l 417 954 l 399 976 l 517 1132 q 573 1163 542 1163 q 617 1131 604 1163 l 678 967 l 656 954 z "},"Ë":{"ha":753,"x_min":14,"x_max":767,"o":"m 199 875 l 617 875 q 767 888 722 875 q 717 708 746 839 l 703 643 l 672 643 l 690 819 q 660 843 690 843 l 367 843 l 285 457 l 565 457 q 585 476 579 458 l 613 563 l 636 563 l 582 313 l 558 313 l 571 399 q 556 418 571 418 l 278 418 l 196 32 l 503 32 q 546 63 536 32 l 604 232 l 635 232 l 621 167 q 594 -12 594 43 q 451 0 554 0 l 14 0 l 18 25 l 82 25 q 104 46 100 25 q 271 842 271 835 q 256 850 271 850 l 194 850 l 199 875 m 403 1031 q 394 1040 403 1031 q 385 1075 385 1049 q 403 1119 385 1101 q 447 1138 421 1138 q 492 1119 474 1138 q 510 1075 510 1101 q 492 1031 510 1049 q 447 1013 474 1013 q 403 1031 421 1013 m 625 1031 q 616 1040 625 1031 q 607 1075 607 1049 q 625 1119 607 1101 q 669 1138 643 1138 q 714 1119 696 1138 q 732 1075 732 1101 q 714 1031 732 1049 q 669 1013 696 1013 q 625 1031 643 1013 z "},"Ì":{"ha":426,"x_min":14,"x_max":481,"o":"m 364 831 l 197 39 q 213 25 197 25 l 274 25 l 269 0 l 14 0 l 18 25 l 82 25 q 104 46 100 25 q 271 842 271 835 q 256 850 271 850 l 194 850 l 199 875 l 454 875 l 450 850 l 388 850 q 364 831 369 850 m 463 954 l 281 1061 q 243 1117 243 1082 q 254 1149 243 1136 q 287 1163 265 1163 q 326 1143 308 1163 l 481 976 l 463 954 z "},"Í":{"ha":426,"x_min":14,"x_max":479,"o":"m 364 831 l 197 39 q 213 25 197 25 l 274 25 l 269 0 l 14 0 l 18 25 l 82 25 q 104 46 100 25 q 271 842 271 835 q 256 850 271 850 l 194 850 l 199 875 l 454 875 l 450 850 l 388 850 q 364 831 369 850 m 442 1061 l 260 954 l 242 976 l 396 1143 q 435 1163 414 1163 q 468 1149 457 1163 q 479 1117 479 1136 q 442 1061 479 1082 z "},"Î":{"ha":426,"x_min":14,"x_max":481,"o":"m 364 831 l 197 39 q 213 25 197 25 l 274 25 l 269 0 l 14 0 l 18 25 l 82 25 q 104 46 100 25 q 271 842 271 835 q 256 850 271 850 l 194 850 l 199 875 l 454 875 l 450 850 l 388 850 q 364 831 369 850 m 458 954 l 361 1072 l 219 954 l 201 976 l 319 1132 q 376 1163 344 1163 q 419 1131 407 1163 l 481 967 l 458 954 z "},"Ï":{"ha":426,"x_min":14,"x_max":536,"o":"m 364 831 l 197 39 q 213 25 197 25 l 274 25 l 269 0 l 14 0 l 18 25 l 82 25 q 104 46 100 25 q 271 842 271 835 q 256 850 271 850 l 194 850 l 199 875 l 454 875 l 450 850 l 388 850 q 364 831 369 850 m 207 1031 q 198 1040 207 1031 q 189 1075 189 1049 q 207 1119 189 1101 q 251 1138 225 1138 q 296 1119 278 1138 q 314 1075 314 1101 q 296 1031 314 1049 q 251 1013 278 1013 q 207 1031 225 1013 m 429 1031 q 420 1040 429 1031 q 411 1075 411 1049 q 429 1119 411 1101 q 474 1138 447 1138 q 518 1119 500 1138 q 536 1075 536 1101 q 518 1031 536 1049 q 474 1013 500 1013 q 429 1031 447 1013 z "},"Ð":{"ha":849,"x_min":14,"x_max":835,"o":"m 526 843 l 367 843 l 196 32 l 357 32 q 521 88 446 32 q 642 228 596 143 q 736 579 736 404 q 678 774 736 704 q 526 843 621 843 m 199 875 l 535 875 q 754 794 674 875 q 835 567 835 713 q 801 369 835 468 q 707 187 767 269 q 553 52 647 104 q 350 0 460 0 l 14 0 l 18 25 l 82 25 q 104 46 100 25 q 271 842 271 835 q 256 850 271 850 l 194 850 l 199 875 m 68 410 l 81 465 l 538 465 l 525 410 l 68 410 z "},"Ñ":{"ha":888,"x_min":0,"x_max":929,"o":"m 379 875 l 656 174 q 796 844 796 838 q 781 850 796 850 l 719 850 l 724 875 l 929 875 l 925 850 l 863 850 q 839 831 844 850 l 664 0 l 622 0 l 297 815 q 135 34 135 43 q 150 25 135 25 l 211 25 l 207 0 l 0 0 l 4 25 l 68 25 q 90 46 86 25 q 257 842 257 835 q 242 850 257 850 l 181 850 l 185 875 l 379 875 m 757 1156 l 782 1146 q 722 1040 751 1069 q 665 1011 692 1011 q 594 1027 639 1011 q 526 1043 550 1043 q 485 1031 501 1043 q 444 981 468 1018 l 421 990 q 542 1124 472 1124 q 606 1108 561 1124 q 675 1092 650 1092 q 717 1105 700 1092 q 757 1156 733 1118 z "},"Ò":{"ha":871,"x_min":69,"x_max":857,"o":"m 389 856 q 560 892 469 892 q 777 809 697 892 q 857 576 857 726 q 824 372 857 475 q 731 181 790 268 q 575 38 671 93 q 354 -17 479 -17 q 149 67 229 -17 q 69 308 69 150 q 156 628 69 467 q 389 856 243 789 m 703 785 q 675 820 703 785 q 556 856 647 856 q 386 797 464 856 q 263 647 308 738 q 167 286 167 461 q 222 90 167 160 q 369 19 276 19 q 539 78 461 19 q 664 226 617 138 q 760 588 760 411 q 703 785 760 714 m 689 954 l 507 1061 q 469 1117 469 1082 q 481 1149 469 1136 q 513 1163 492 1163 q 553 1143 535 1163 l 707 976 l 689 954 z "},"Ó":{"ha":871,"x_min":69,"x_max":857,"o":"m 389 856 q 560 892 469 892 q 777 809 697 892 q 857 576 857 726 q 824 372 857 475 q 731 181 790 268 q 575 38 671 93 q 354 -17 479 -17 q 149 67 229 -17 q 69 308 69 150 q 156 628 69 467 q 389 856 243 789 m 703 785 q 675 820 703 785 q 556 856 647 856 q 386 797 464 856 q 263 647 308 738 q 167 286 167 461 q 222 90 167 160 q 369 19 276 19 q 539 78 461 19 q 664 226 617 138 q 760 588 760 411 q 703 785 760 714 m 668 1061 l 486 954 l 468 976 l 622 1143 q 662 1163 640 1163 q 694 1149 683 1163 q 706 1117 706 1136 q 668 1061 706 1082 z "},"Ô":{"ha":871,"x_min":69,"x_max":857,"o":"m 389 856 q 560 892 469 892 q 777 809 697 892 q 857 576 857 726 q 824 372 857 475 q 731 181 790 268 q 575 38 671 93 q 354 -17 479 -17 q 149 67 229 -17 q 69 308 69 150 q 156 628 69 467 q 389 856 243 789 m 703 785 q 675 820 703 785 q 556 856 647 856 q 386 797 464 856 q 263 647 308 738 q 167 286 167 461 q 222 90 167 160 q 369 19 276 19 q 539 78 461 19 q 664 226 617 138 q 760 588 760 411 q 703 785 760 714 m 686 954 l 589 1072 l 447 954 l 429 976 l 547 1132 q 603 1163 572 1163 q 647 1131 635 1163 l 708 967 l 686 954 z "},"Õ":{"ha":871,"x_min":69,"x_max":857,"o":"m 389 856 q 560 892 469 892 q 777 809 697 892 q 857 576 857 726 q 824 372 857 475 q 731 181 790 268 q 575 38 671 93 q 354 -17 479 -17 q 149 67 229 -17 q 69 308 69 150 q 156 628 69 467 q 389 856 243 789 m 703 785 q 675 820 703 785 q 556 856 647 856 q 386 797 464 856 q 263 647 308 738 q 167 286 167 461 q 222 90 167 160 q 369 19 276 19 q 539 78 461 19 q 664 226 617 138 q 760 588 760 411 q 703 785 760 714 m 746 1156 l 771 1146 q 710 1040 740 1069 q 654 1011 681 1011 q 583 1027 628 1011 q 515 1043 539 1043 q 474 1031 490 1043 q 433 981 457 1018 l 410 990 q 531 1124 461 1124 q 594 1108 550 1124 q 664 1092 639 1092 q 706 1105 689 1092 q 746 1156 722 1118 z "},"Ö":{"ha":871,"x_min":69,"x_max":857,"o":"m 389 856 q 560 892 469 892 q 777 809 697 892 q 857 576 857 726 q 824 372 857 475 q 731 181 790 268 q 575 38 671 93 q 354 -17 479 -17 q 149 67 229 -17 q 69 308 69 150 q 156 628 69 467 q 389 856 243 789 m 703 785 q 675 820 703 785 q 556 856 647 856 q 386 797 464 856 q 263 647 308 738 q 167 286 167 461 q 222 90 167 160 q 369 19 276 19 q 539 78 461 19 q 664 226 617 138 q 760 588 760 411 q 703 785 760 714 m 438 1031 q 428 1040 438 1031 q 419 1075 419 1049 q 438 1119 419 1101 q 482 1138 456 1138 q 526 1119 508 1138 q 544 1075 544 1101 q 526 1031 544 1049 q 482 1013 508 1013 q 438 1031 456 1013 m 660 1031 q 651 1040 660 1031 q 642 1075 642 1049 q 660 1119 642 1101 q 704 1138 678 1138 q 749 1119 731 1138 q 767 1075 767 1101 q 749 1031 767 1049 q 704 1013 731 1013 q 660 1031 678 1013 z "},"×":{"ha":701,"x_min":110,"x_max":628,"o":"m 247 504 l 379 324 l 590 506 l 628 453 l 418 272 l 551 92 l 490 39 l 357 219 l 149 40 l 110 92 l 319 272 l 186 453 l 247 504 z "},"Ø":{"ha":871,"x_min":69,"x_max":857,"o":"m 389 856 q 560 892 469 892 q 777 809 697 892 q 857 576 857 726 q 824 372 857 475 q 731 181 790 268 q 575 38 671 93 q 354 -17 479 -17 q 149 67 229 -17 q 69 308 69 150 q 156 628 69 467 q 389 856 243 789 m 703 785 q 675 820 703 785 q 556 856 647 856 q 386 797 464 856 q 263 647 308 738 q 167 286 167 461 q 222 90 167 160 q 369 19 276 19 q 539 78 461 19 q 664 226 617 138 q 760 588 760 411 q 703 785 760 714 m 313 -111 l 267 -111 l 613 992 l 660 992 l 313 -111 z "},"Ù":{"ha":846,"x_min":114,"x_max":915,"o":"m 124 271 l 244 839 q 229 850 244 850 l 167 850 l 171 875 l 426 875 l 422 850 l 360 850 q 336 831 342 850 l 215 261 q 207 190 207 222 q 256 69 207 108 q 385 29 304 29 q 544 82 461 29 q 661 269 633 139 l 781 835 q 767 850 781 850 l 704 850 l 708 875 l 915 875 l 911 850 l 849 850 q 825 831 831 850 l 707 271 q 583 55 676 126 q 365 -17 489 -17 q 114 188 114 -17 q 124 271 114 228 m 681 954 l 499 1061 q 461 1117 461 1082 q 472 1149 461 1136 q 505 1163 483 1163 q 544 1143 526 1163 l 699 976 l 681 954 z "},"Ú":{"ha":846,"x_min":114,"x_max":915,"o":"m 124 271 l 244 839 q 229 850 244 850 l 167 850 l 171 875 l 426 875 l 422 850 l 360 850 q 336 831 342 850 l 215 261 q 207 190 207 222 q 256 69 207 108 q 385 29 304 29 q 544 82 461 29 q 661 269 633 139 l 781 835 q 767 850 781 850 l 704 850 l 708 875 l 915 875 l 911 850 l 849 850 q 825 831 831 850 l 707 271 q 583 55 676 126 q 365 -17 489 -17 q 114 188 114 -17 q 124 271 114 228 m 690 1061 l 508 954 l 490 976 l 644 1143 q 684 1163 663 1163 q 717 1149 706 1163 q 728 1117 728 1136 q 690 1061 728 1082 z "},"Û":{"ha":846,"x_min":114,"x_max":915,"o":"m 124 271 l 244 839 q 229 850 244 850 l 167 850 l 171 875 l 426 875 l 422 850 l 360 850 q 336 831 342 850 l 215 261 q 207 190 207 222 q 256 69 207 108 q 385 29 304 29 q 544 82 461 29 q 661 269 633 139 l 781 835 q 767 850 781 850 l 704 850 l 708 875 l 915 875 l 911 850 l 849 850 q 825 831 831 850 l 707 271 q 583 55 676 126 q 365 -17 489 -17 q 114 188 114 -17 q 124 271 114 228 m 708 954 l 611 1072 l 469 954 l 451 976 l 569 1132 q 626 1163 594 1163 q 669 1131 657 1163 l 731 967 l 708 954 z "},"Ü":{"ha":846,"x_min":114,"x_max":915,"o":"m 124 271 l 244 839 q 229 850 244 850 l 167 850 l 171 875 l 426 875 l 422 850 l 360 850 q 336 831 342 850 l 215 261 q 207 190 207 222 q 256 69 207 108 q 385 29 304 29 q 544 82 461 29 q 661 269 633 139 l 781 835 q 767 850 781 850 l 704 850 l 708 875 l 915 875 l 911 850 l 849 850 q 825 831 831 850 l 707 271 q 583 55 676 126 q 365 -17 489 -17 q 114 188 114 -17 q 124 271 114 228 m 458 1031 q 449 1040 458 1031 q 440 1075 440 1049 q 458 1119 440 1101 q 503 1138 476 1138 q 547 1119 529 1138 q 565 1075 565 1101 q 547 1031 565 1049 q 503 1013 529 1013 q 458 1031 476 1013 m 681 1031 q 672 1040 681 1031 q 663 1075 663 1049 q 681 1119 663 1101 q 725 1138 699 1138 q 769 1119 751 1138 q 788 1075 788 1101 q 769 1031 788 1049 q 725 1013 751 1013 q 681 1031 699 1013 z "},"Ý":{"ha":632,"x_min":85,"x_max":771,"o":"m 343 264 l 282 257 l 154 831 q 133 850 150 850 l 85 850 l 89 875 l 318 875 l 314 850 l 249 850 l 360 357 l 653 850 l 588 850 l 592 875 l 771 875 l 767 850 l 718 850 q 689 831 701 850 l 343 264 m 279 336 l 368 313 q 311 34 311 43 q 326 25 311 25 l 418 25 l 414 0 l 97 0 l 101 25 l 196 25 q 218 46 214 25 l 279 336 m 588 1061 l 406 954 l 388 976 l 542 1143 q 581 1163 560 1163 q 614 1149 603 1163 q 625 1117 625 1136 q 588 1061 625 1082 z "},"Þ":{"ha":674,"x_min":14,"x_max":688,"o":"m 225 174 l 197 39 q 213 25 197 25 l 274 25 l 269 0 l 14 0 l 18 25 l 82 25 q 104 46 100 25 q 271 842 271 835 q 256 850 271 850 l 194 850 l 199 875 l 454 875 l 450 850 l 388 850 q 364 831 369 850 l 336 700 l 471 700 q 626 647 565 700 q 688 501 688 594 q 586 264 688 354 q 360 174 485 174 l 225 174 m 456 668 l 329 668 l 231 206 l 361 206 q 528 303 461 206 q 596 507 596 400 q 560 622 596 576 q 456 668 525 668 z "},"ß":{"ha":671,"x_min":-174,"x_max":692,"o":"m 526 597 q 544 616 526 597 q 588 681 563 635 q 613 774 613 726 q 582 853 613 822 q 499 885 551 885 q 308 654 357 885 l 178 44 q -62 -317 101 -317 q -144 -285 -115 -317 q -174 -213 -174 -253 q -158 -142 -174 -174 q -107 -111 -142 -111 q -57 -129 -72 -111 q -87 -171 -75 -143 q -99 -225 -99 -199 q -49 -285 -99 -285 q 37 -196 7 -285 q 117 147 67 -107 l 197 558 q 306 819 229 722 q 492 917 382 917 q 647 873 603 917 q 692 776 692 829 q 653 670 692 724 q 569 578 615 617 q 485 497 524 540 q 447 424 447 454 q 494 353 447 393 l 557 300 q 621 190 621 246 q 556 49 621 115 q 392 -17 490 -17 q 294 10 332 -17 q 256 83 256 38 q 272 160 256 129 q 320 192 289 192 q 364 172 351 192 q 331 75 331 115 q 399 14 331 14 q 498 53 454 14 q 542 134 542 93 q 492 218 542 175 l 411 286 q 367 364 367 324 q 392 445 367 404 q 453 523 417 486 q 526 597 489 560 m 72 550 l 79 576 l 283 576 l 276 550 l 72 550 z "},"à":{"ha":694,"x_min":56,"x_max":650,"o":"m 618 590 q 526 281 569 446 q 483 69 483 115 q 518 22 483 22 q 575 58 544 22 q 628 158 606 93 l 650 153 q 494 -17 590 -17 q 408 88 408 -17 q 415 154 408 108 l 408 154 q 208 -17 322 -17 q 99 41 143 -17 q 56 183 56 99 q 78 339 56 267 q 140 474 100 411 q 247 577 181 538 q 393 617 314 617 q 556 529 496 617 l 599 604 l 618 590 m 242 25 q 360 115 300 25 q 486 456 428 219 q 506 536 499 511 q 394 583 457 583 q 281 540 331 583 q 204 432 232 497 q 147 181 147 299 q 173 64 147 103 q 242 25 199 25 m 515 679 l 333 786 q 296 842 296 807 q 307 874 296 861 q 340 888 318 888 q 379 868 361 888 l 533 701 l 515 679 z "},"á":{"ha":694,"x_min":56,"x_max":650,"o":"m 618 590 q 526 281 569 446 q 483 69 483 115 q 518 22 483 22 q 575 58 544 22 q 628 158 606 93 l 650 153 q 494 -17 590 -17 q 408 88 408 -17 q 415 154 408 108 l 408 154 q 208 -17 322 -17 q 99 41 143 -17 q 56 183 56 99 q 78 339 56 267 q 140 474 100 411 q 247 577 181 538 q 393 617 314 617 q 556 529 496 617 l 599 604 l 618 590 m 242 25 q 360 115 300 25 q 486 456 428 219 q 506 536 499 511 q 394 583 457 583 q 281 540 331 583 q 204 432 232 497 q 147 181 147 299 q 173 64 147 103 q 242 25 199 25 m 525 786 l 343 679 l 325 701 l 479 868 q 519 888 497 888 q 551 874 540 888 q 563 842 563 861 q 525 786 563 807 z "},"â":{"ha":694,"x_min":56,"x_max":650,"o":"m 618 590 q 526 281 569 446 q 483 69 483 115 q 518 22 483 22 q 575 58 544 22 q 628 158 606 93 l 650 153 q 494 -17 590 -17 q 408 88 408 -17 q 415 154 408 108 l 408 154 q 208 -17 322 -17 q 99 41 143 -17 q 56 183 56 99 q 78 339 56 267 q 140 474 100 411 q 247 577 181 538 q 393 617 314 617 q 556 529 496 617 l 599 604 l 618 590 m 242 25 q 360 115 300 25 q 486 456 428 219 q 506 536 499 511 q 394 583 457 583 q 281 540 331 583 q 204 432 232 497 q 147 181 147 299 q 173 64 147 103 q 242 25 199 25 m 536 679 l 439 797 l 297 679 l 279 701 l 397 857 q 453 888 422 888 q 497 856 485 888 l 558 692 l 536 679 z "},"ã":{"ha":694,"x_min":56,"x_max":650,"o":"m 618 590 q 526 281 569 446 q 483 69 483 115 q 518 22 483 22 q 575 58 544 22 q 628 158 606 93 l 650 153 q 494 -17 590 -17 q 408 88 408 -17 q 415 154 408 108 l 408 154 q 208 -17 322 -17 q 99 41 143 -17 q 56 183 56 99 q 78 339 56 267 q 140 474 100 411 q 247 577 181 538 q 393 617 314 617 q 556 529 496 617 l 599 604 l 618 590 m 242 25 q 360 115 300 25 q 486 456 428 219 q 506 536 499 511 q 394 583 457 583 q 281 540 331 583 q 204 432 232 497 q 147 181 147 299 q 173 64 147 103 q 242 25 199 25 m 600 881 l 625 871 q 565 765 594 794 q 508 736 535 736 q 438 752 482 736 q 369 768 393 768 q 328 756 344 768 q 288 706 311 743 l 264 715 q 385 849 315 849 q 449 833 404 849 q 518 817 493 817 q 560 830 543 817 q 600 881 576 843 z "},"ä":{"ha":694,"x_min":56,"x_max":650,"o":"m 618 590 q 526 281 569 446 q 483 69 483 115 q 518 22 483 22 q 575 58 544 22 q 628 158 606 93 l 650 153 q 494 -17 590 -17 q 408 88 408 -17 q 415 154 408 108 l 408 154 q 208 -17 322 -17 q 99 41 143 -17 q 56 183 56 99 q 78 339 56 267 q 140 474 100 411 q 247 577 181 538 q 393 617 314 617 q 556 529 496 617 l 599 604 l 618 590 m 242 25 q 360 115 300 25 q 486 456 428 219 q 506 536 499 511 q 394 583 457 583 q 281 540 331 583 q 204 432 232 497 q 147 181 147 299 q 173 64 147 103 q 242 25 199 25 m 282 756 q 273 765 282 756 q 264 800 264 774 q 282 844 264 826 q 326 863 300 863 q 371 844 353 863 q 389 800 389 826 q 371 756 389 774 q 326 738 353 738 q 282 756 300 738 m 504 756 q 495 765 504 756 q 486 800 486 774 q 504 844 486 826 q 549 863 522 863 q 593 844 575 863 q 611 800 611 826 q 593 756 611 774 q 549 738 575 738 q 504 756 522 738 z "},"å":{"ha":694,"x_min":56,"x_max":650,"o":"m 618 590 q 526 281 569 446 q 483 69 483 115 q 518 22 483 22 q 575 58 544 22 q 628 158 606 93 l 650 153 q 494 -17 590 -17 q 408 88 408 -17 q 415 154 408 108 l 408 154 q 208 -17 322 -17 q 99 41 143 -17 q 56 183 56 99 q 78 339 56 267 q 140 474 100 411 q 247 577 181 538 q 393 617 314 617 q 556 529 496 617 l 599 604 l 618 590 m 242 25 q 360 115 300 25 q 486 456 428 219 q 506 536 499 511 q 394 583 457 583 q 281 540 331 583 q 204 432 232 497 q 147 181 147 299 q 173 64 147 103 q 242 25 199 25 m 423 685 q 398 685 423 685 q 346 708 372 685 q 319 780 319 731 q 362 873 319 829 q 456 917 404 917 q 560 829 560 917 q 517 724 560 764 q 423 685 474 685 m 461 890 q 442 890 461 890 q 401 849 422 890 q 381 760 381 808 q 419 711 381 711 q 473 744 446 711 q 500 819 500 778 q 461 890 500 890 z "},"æ":{"ha":929,"x_min":56,"x_max":915,"o":"m 768 617 q 878 581 842 617 q 915 480 915 546 q 864 365 915 414 q 604 282 776 282 q 536 286 565 282 q 525 169 525 235 q 554 60 525 103 q 636 17 583 17 q 838 167 774 17 l 860 161 q 763 30 826 76 q 621 -17 700 -17 q 488 42 542 -17 q 433 204 433 100 q 208 -17 344 -17 q 99 41 143 -17 q 56 183 56 99 q 78 339 56 267 q 140 474 100 411 q 247 577 181 538 q 394 617 314 617 q 533 557 474 617 l 576 604 l 596 590 l 575 539 q 768 617 660 617 m 147 181 q 173 64 147 103 q 243 25 199 25 q 333 80 288 25 q 411 217 378 135 q 506 536 478 376 q 394 583 457 583 q 281 540 331 583 q 204 432 232 497 q 147 181 147 299 m 761 583 q 623 503 679 583 q 542 313 567 424 q 596 310 578 310 q 774 368 711 310 q 838 496 838 426 q 817 558 838 533 q 761 583 797 583 z "},"ç":{"ha":551,"x_min":56,"x_max":531,"o":"m 383 583 q 278 540 326 583 q 203 433 231 497 q 147 200 147 299 q 258 17 147 17 q 460 167 396 17 l 482 161 q 385 30 449 76 q 243 -17 322 -17 q 110 42 164 -17 q 56 199 56 100 q 93 390 56 297 q 210 549 131 482 q 390 617 289 617 q 495 581 460 617 q 531 497 531 546 q 513 408 531 447 q 459 369 496 369 q 404 392 422 369 q 444 511 444 453 q 383 583 444 583 m 219 0 l 242 0 l 215 -64 q 281 -100 258 -72 q 303 -170 303 -128 q 261 -256 303 -212 q 150 -300 219 -300 q 88 -277 114 -300 q 63 -219 63 -254 q 78 -165 63 -183 q 116 -146 93 -146 q 149 -156 139 -146 q 125 -227 125 -185 q 165 -269 125 -269 q 217 -243 192 -269 q 242 -174 242 -217 q 176 -104 242 -117 l 219 0 z "},"è":{"ha":551,"x_min":56,"x_max":538,"o":"m 390 617 q 501 581 464 617 q 538 480 538 546 q 486 365 538 414 q 226 282 399 282 q 138 290 175 282 l 138 317 q 218 310 186 310 q 397 368 333 310 q 460 496 460 426 q 440 558 460 533 q 373 583 419 583 q 278 540 326 583 q 203 433 231 497 q 147 200 147 299 q 258 17 147 17 q 460 167 396 17 l 482 161 q 385 30 449 76 q 243 -17 322 -17 q 110 42 164 -17 q 56 199 56 100 q 93 390 56 297 q 210 549 131 482 q 390 617 289 617 m 496 679 l 314 786 q 276 842 276 807 q 288 874 276 861 q 320 888 299 888 q 360 868 342 888 l 514 701 l 496 679 z "},"é":{"ha":551,"x_min":56,"x_max":538,"o":"m 390 617 q 501 581 464 617 q 538 480 538 546 q 486 365 538 414 q 226 282 399 282 q 138 290 175 282 l 138 317 q 218 310 186 310 q 397 368 333 310 q 460 496 460 426 q 440 558 460 533 q 373 583 419 583 q 278 540 326 583 q 203 433 231 497 q 147 200 147 299 q 258 17 147 17 q 460 167 396 17 l 482 161 q 385 30 449 76 q 243 -17 322 -17 q 110 42 164 -17 q 56 199 56 100 q 93 390 56 297 q 210 549 131 482 q 390 617 289 617 m 492 786 l 310 679 l 292 701 l 446 868 q 485 888 464 888 q 518 874 507 888 q 529 842 529 861 q 492 786 529 807 z "},"ê":{"ha":551,"x_min":56,"x_max":538,"o":"m 390 617 q 501 581 464 617 q 538 480 538 546 q 486 365 538 414 q 226 282 399 282 q 138 290 175 282 l 138 317 q 218 310 186 310 q 397 368 333 310 q 460 496 460 426 q 440 558 460 533 q 373 583 419 583 q 278 540 326 583 q 203 433 231 497 q 147 200 147 299 q 258 17 147 17 q 460 167 396 17 l 482 161 q 385 30 449 76 q 243 -17 322 -17 q 110 42 164 -17 q 56 199 56 100 q 93 390 56 297 q 210 549 131 482 q 390 617 289 617 m 510 679 l 413 797 l 271 679 l 253 701 l 371 857 q 427 888 396 888 q 471 856 458 888 l 532 692 l 510 679 z "},"ë":{"ha":551,"x_min":56,"x_max":588,"o":"m 390 617 q 501 581 464 617 q 538 480 538 546 q 486 365 538 414 q 226 282 399 282 q 138 290 175 282 l 138 317 q 218 310 186 310 q 397 368 333 310 q 460 496 460 426 q 440 558 460 533 q 373 583 419 583 q 278 540 326 583 q 203 433 231 497 q 147 200 147 299 q 258 17 147 17 q 460 167 396 17 l 482 161 q 385 30 449 76 q 243 -17 322 -17 q 110 42 164 -17 q 56 199 56 100 q 93 390 56 297 q 210 549 131 482 q 390 617 289 617 m 258 756 q 249 765 258 756 q 240 800 240 774 q 258 844 240 826 q 303 863 276 863 q 347 844 329 863 q 365 800 365 826 q 347 756 365 774 q 303 738 329 738 q 258 756 276 738 m 481 756 q 472 765 481 756 q 463 800 463 774 q 481 844 463 826 q 525 863 499 863 q 569 844 551 863 q 588 800 588 826 q 569 756 588 774 q 525 738 551 738 q 481 756 499 738 z "},"ì":{"ha":383,"x_min":97,"x_max":383,"o":"m 97 88 q 199 553 97 161 l 110 546 l 108 569 q 288 604 204 582 l 307 590 q 215 281 258 446 q 172 69 172 115 q 207 22 172 22 q 264 58 233 22 q 317 158 294 93 l 339 153 q 183 -17 279 -17 q 97 88 97 -17 m 365 679 l 183 786 q 146 842 146 807 q 157 874 146 861 q 190 888 168 888 q 229 868 211 888 l 383 701 l 365 679 z "},"í":{"ha":383,"x_min":97,"x_max":403,"o":"m 97 88 q 199 553 97 161 l 110 546 l 108 569 q 288 604 204 582 l 307 590 q 215 281 258 446 q 172 69 172 115 q 207 22 172 22 q 264 58 233 22 q 317 158 294 93 l 339 153 q 183 -17 279 -17 q 97 88 97 -17 m 365 786 l 183 679 l 165 701 l 319 868 q 359 888 338 888 q 392 874 381 888 q 403 842 403 861 q 365 786 403 807 z "},"î":{"ha":383,"x_min":97,"x_max":404,"o":"m 97 88 q 199 553 97 161 l 110 546 l 108 569 q 288 604 204 582 l 307 590 q 215 281 258 446 q 172 69 172 115 q 207 22 172 22 q 264 58 233 22 q 317 158 294 93 l 339 153 q 183 -17 279 -17 q 97 88 97 -17 m 382 679 l 285 797 l 143 679 l 125 701 l 243 857 q 299 888 268 888 q 343 856 331 888 l 404 692 l 382 679 z "},"ï":{"ha":383,"x_min":97,"x_max":446,"o":"m 97 88 q 199 553 97 161 l 110 546 l 108 569 q 288 604 204 582 l 307 590 q 215 281 258 446 q 172 69 172 115 q 207 22 172 22 q 264 58 233 22 q 317 158 294 93 l 339 153 q 183 -17 279 -17 q 97 88 97 -17 m 117 756 q 108 765 117 756 q 99 800 99 774 q 117 844 99 826 q 161 863 135 863 q 206 844 188 863 q 224 800 224 826 q 206 756 224 774 q 161 738 188 738 q 117 756 135 738 m 339 756 q 330 765 339 756 q 321 800 321 774 q 339 844 321 826 q 383 863 357 863 q 428 844 410 863 q 446 800 446 826 q 428 756 446 774 q 383 738 410 738 q 339 756 357 738 z "},"ð":{"ha":653,"x_min":63,"x_max":653,"o":"m 531 518 l 535 519 q 311 885 519 786 l 326 917 q 528 738 458 869 q 597 432 597 606 q 510 121 597 258 q 274 -17 422 -17 q 119 42 176 -17 q 63 206 63 100 q 166 492 63 376 q 377 607 269 607 q 531 518 485 607 m 503 401 q 503 439 503 401 q 472 523 503 478 q 386 568 440 568 q 284 528 332 568 q 208 429 236 489 q 150 205 150 304 q 183 60 150 106 q 280 14 217 14 q 399 83 343 14 q 478 238 454 153 q 503 401 503 324 m 331 678 l 310 724 l 632 879 l 653 833 l 331 678 z "},"ñ":{"ha":699,"x_min":63,"x_max":654,"o":"m 622 490 q 622 460 622 490 q 555 271 622 431 q 488 67 488 111 q 522 22 488 22 q 579 58 549 22 q 632 158 610 93 l 654 153 q 499 -17 594 -17 q 413 78 413 -17 q 476 278 413 118 q 539 483 539 438 q 475 571 539 571 q 325 458 406 571 q 160 0 232 324 l 63 -8 l 199 553 l 110 546 l 108 569 q 288 604 204 582 l 307 590 q 190 239 240 438 l 201 239 l 224 300 q 386 572 299 510 q 455 608 428 600 q 523 617 482 617 q 593 583 564 617 q 622 490 622 550 m 625 881 l 650 871 q 590 765 619 794 q 533 736 560 736 q 463 752 507 736 q 394 768 418 768 q 353 756 369 768 q 313 706 336 743 l 289 715 q 410 849 340 849 q 474 833 429 849 q 543 817 518 817 q 585 830 568 817 q 625 881 601 843 z "},"ò":{"ha":639,"x_min":56,"x_max":583,"o":"m 56 201 q 139 475 56 344 q 244 577 179 538 q 394 617 310 617 q 531 560 478 617 q 583 404 583 503 q 547 213 583 306 q 433 51 511 119 q 258 -17 356 -17 q 108 40 161 -17 q 56 201 56 97 m 382 586 q 249 511 307 586 q 167 347 192 436 q 143 181 143 258 q 174 59 143 104 q 260 14 206 14 q 363 58 315 14 q 439 168 411 103 q 496 399 496 301 q 465 542 496 497 q 382 586 435 586 m 524 679 l 342 786 q 304 842 304 807 q 315 874 304 861 q 348 888 326 888 q 388 868 369 888 l 542 701 l 524 679 z "},"ó":{"ha":639,"x_min":56,"x_max":583,"o":"m 56 201 q 139 475 56 344 q 244 577 179 538 q 394 617 310 617 q 531 560 478 617 q 583 404 583 503 q 547 213 583 306 q 433 51 511 119 q 258 -17 356 -17 q 108 40 161 -17 q 56 201 56 97 m 382 586 q 249 511 307 586 q 167 347 192 436 q 143 181 143 258 q 174 59 143 104 q 260 14 206 14 q 363 58 315 14 q 439 168 411 103 q 496 399 496 301 q 465 542 496 497 q 382 586 435 586 m 521 786 l 339 679 l 321 701 l 475 868 q 515 888 493 888 q 547 874 536 888 q 558 842 558 861 q 521 786 558 807 z "},"ô":{"ha":639,"x_min":56,"x_max":583,"o":"m 56 201 q 139 475 56 344 q 244 577 179 538 q 394 617 310 617 q 531 560 478 617 q 583 404 583 503 q 547 213 583 306 q 433 51 511 119 q 258 -17 356 -17 q 108 40 161 -17 q 56 201 56 97 m 382 586 q 249 511 307 586 q 167 347 192 436 q 143 181 143 258 q 174 59 143 104 q 260 14 206 14 q 363 58 315 14 q 439 168 411 103 q 496 399 496 301 q 465 542 496 497 q 382 586 435 586 m 539 679 l 442 797 l 300 679 l 282 701 l 400 857 q 456 888 425 888 q 500 856 488 888 l 561 692 l 539 679 z "},"õ":{"ha":639,"x_min":56,"x_max":608,"o":"m 56 201 q 139 475 56 344 q 244 577 179 538 q 394 617 310 617 q 531 560 478 617 q 583 404 583 503 q 547 213 583 306 q 433 51 511 119 q 258 -17 356 -17 q 108 40 161 -17 q 56 201 56 97 m 382 586 q 249 511 307 586 q 167 347 192 436 q 143 181 143 258 q 174 59 143 104 q 260 14 206 14 q 363 58 315 14 q 439 168 411 103 q 496 399 496 301 q 465 542 496 497 q 382 586 435 586 m 583 881 l 608 871 q 548 765 578 794 q 492 736 518 736 q 421 752 465 736 q 352 768 376 768 q 311 756 328 768 q 271 706 294 743 l 247 715 q 368 849 299 849 q 432 833 388 849 q 501 817 476 817 q 543 830 526 817 q 583 881 560 843 z "},"ö":{"ha":639,"x_min":56,"x_max":618,"o":"m 56 201 q 139 475 56 344 q 244 577 179 538 q 394 617 310 617 q 531 560 478 617 q 583 404 583 503 q 547 213 583 306 q 433 51 511 119 q 258 -17 356 -17 q 108 40 161 -17 q 56 201 56 97 m 382 586 q 249 511 307 586 q 167 347 192 436 q 143 181 143 258 q 174 59 143 104 q 260 14 206 14 q 363 58 315 14 q 439 168 411 103 q 496 399 496 301 q 465 542 496 497 q 382 586 435 586 m 289 756 q 280 765 289 756 q 271 800 271 774 q 289 844 271 826 q 333 863 307 863 q 378 844 360 863 q 396 800 396 826 q 378 756 396 774 q 333 738 360 738 q 289 756 307 738 m 511 756 q 502 765 511 756 q 493 800 493 774 q 511 844 493 826 q 556 863 529 863 q 600 844 582 863 q 618 800 618 826 q 600 756 618 774 q 556 738 582 738 q 511 756 529 738 z "},"÷":{"ha":701,"x_min":103,"x_max":636,"o":"m 621 236 l 103 236 l 118 310 l 636 310 l 621 236 m 400 92 q 370 34 396 56 q 321 13 344 13 q 284 27 297 13 q 271 68 271 42 q 295 120 271 94 q 345 146 319 146 q 385 131 371 146 q 400 92 400 115 m 482 479 q 453 422 478 443 q 405 400 429 400 q 367 415 381 400 q 353 456 353 429 q 377 508 353 483 q 427 533 401 533 q 467 518 453 533 q 482 479 482 503 z "},"ø":{"ha":639,"x_min":56,"x_max":583,"o":"m 56 201 q 139 475 56 344 q 244 577 179 538 q 394 617 310 617 q 531 560 478 617 q 583 404 583 503 q 547 213 583 306 q 433 51 511 119 q 258 -17 356 -17 q 108 40 161 -17 q 56 201 56 97 m 382 586 q 249 511 307 586 q 167 347 192 436 q 143 181 143 258 q 174 59 143 104 q 260 14 206 14 q 363 58 315 14 q 439 168 411 103 q 496 399 496 301 q 465 542 496 497 q 382 586 435 586 m 169 -199 l 124 -199 l 469 804 l 517 804 l 169 -199 z "},"ù":{"ha":718,"x_min":100,"x_max":674,"o":"m 432 88 q 439 154 432 108 l 432 154 q 226 -17 343 -17 q 101 122 101 -17 q 165 457 101 213 l 190 553 l 101 546 l 100 569 q 279 604 196 582 l 299 590 q 182 126 182 228 q 258 25 182 25 q 384 119 322 25 q 486 371 446 213 l 533 553 l 444 546 l 443 569 q 622 604 539 582 l 642 590 q 550 281 593 446 q 507 69 507 115 q 542 22 507 22 q 599 58 568 22 q 651 158 629 93 l 674 153 q 518 -17 614 -17 q 432 88 432 -17 m 522 679 l 340 786 q 303 842 303 807 q 314 874 303 861 q 347 888 325 888 q 386 868 368 888 l 540 701 l 522 679 z "},"ú":{"ha":718,"x_min":100,"x_max":674,"o":"m 432 88 q 439 154 432 108 l 432 154 q 226 -17 343 -17 q 101 122 101 -17 q 165 457 101 213 l 190 553 l 101 546 l 100 569 q 279 604 196 582 l 299 590 q 182 126 182 228 q 258 25 182 25 q 384 119 322 25 q 486 371 446 213 l 533 553 l 444 546 l 443 569 q 622 604 539 582 l 642 590 q 550 281 593 446 q 507 69 507 115 q 542 22 507 22 q 599 58 568 22 q 651 158 629 93 l 674 153 q 518 -17 614 -17 q 432 88 432 -17 m 539 786 l 357 679 l 339 701 l 493 868 q 533 888 511 888 q 565 874 554 888 q 576 842 576 861 q 539 786 576 807 z "},"û":{"ha":718,"x_min":100,"x_max":674,"o":"m 432 88 q 439 154 432 108 l 432 154 q 226 -17 343 -17 q 101 122 101 -17 q 165 457 101 213 l 190 553 l 101 546 l 100 569 q 279 604 196 582 l 299 590 q 182 126 182 228 q 258 25 182 25 q 384 119 322 25 q 486 371 446 213 l 533 553 l 444 546 l 443 569 q 622 604 539 582 l 642 590 q 550 281 593 446 q 507 69 507 115 q 542 22 507 22 q 599 58 568 22 q 651 158 629 93 l 674 153 q 518 -17 614 -17 q 432 88 432 -17 m 557 679 l 460 797 l 318 679 l 300 701 l 418 857 q 474 888 443 888 q 518 856 506 888 l 579 692 l 557 679 z "},"ü":{"ha":718,"x_min":100,"x_max":674,"o":"m 432 88 q 439 154 432 108 l 432 154 q 226 -17 343 -17 q 101 122 101 -17 q 165 457 101 213 l 190 553 l 101 546 l 100 569 q 279 604 196 582 l 299 590 q 182 126 182 228 q 258 25 182 25 q 384 119 322 25 q 486 371 446 213 l 533 553 l 444 546 l 443 569 q 622 604 539 582 l 642 590 q 550 281 593 446 q 507 69 507 115 q 542 22 507 22 q 599 58 568 22 q 651 158 629 93 l 674 153 q 518 -17 614 -17 q 432 88 432 -17 m 306 756 q 297 765 306 756 q 288 800 288 774 q 306 844 288 826 q 350 863 324 863 q 394 844 376 863 q 413 800 413 826 q 394 756 413 774 q 350 738 376 738 q 306 756 324 738 m 528 756 q 519 765 528 756 q 510 800 510 774 q 528 844 510 826 q 572 863 546 863 q 617 844 599 863 q 635 800 635 826 q 617 756 635 774 q 572 738 599 738 q 528 756 546 738 z "},"ý":{"ha":656,"x_min":-61,"x_max":589,"o":"m 515 786 l 333 679 l 315 701 l 469 868 q 509 888 488 888 q 542 874 531 888 q 553 842 553 861 q 515 786 553 807 m 278 29 q 455 159 367 29 q 543 402 543 289 q 471 588 543 515 q 535 617 506 617 q 589 464 589 617 q 556 184 589 311 q 469 -32 522 57 q 347 -186 415 -121 q 79 -317 215 -317 q -26 -285 10 -317 q -61 -210 -61 -253 q -44 -132 -61 -167 q 8 -97 -26 -97 q 65 -117 43 -97 q 25 -211 25 -168 q 99 -281 25 -281 q 211 -245 147 -281 q 340 -145 275 -210 q 460 28 406 -81 q 538 263 515 136 q 415 63 492 142 q 238 -17 338 -17 q 155 19 186 -17 q 124 115 124 54 q 170 329 124 176 q 217 530 217 482 q 181 578 217 578 q 125 542 154 578 q 78 442 96 507 l 54 447 q 203 617 106 617 q 293 519 293 617 q 250 326 293 481 q 207 124 207 172 q 278 29 207 29 z "},"þ":{"ha":661,"x_min":-10,"x_max":633,"o":"m -10 -308 l 276 861 l 188 854 l 186 878 q 365 913 282 890 l 385 899 q 192 239 286 611 l 203 239 l 225 300 q 489 617 340 617 q 591 558 549 617 q 633 417 633 500 q 612 262 633 333 q 550 128 590 190 q 444 28 510 67 q 300 -11 379 -11 q 111 96 179 -11 l 121 119 q 296 18 188 18 q 408 60 358 18 q 483 164 457 101 q 536 414 536 292 q 516 524 536 485 q 464 564 496 564 q 317 438 399 564 q 171 43 236 311 l 88 -300 l -10 -308 z "},"ÿ":{"ha":656,"x_min":-61,"x_max":593,"o":"m 278 29 q 455 159 367 29 q 543 402 543 289 q 471 588 543 515 q 535 617 506 617 q 589 464 589 617 q 556 184 589 311 q 469 -32 522 57 q 347 -186 415 -121 q 79 -317 215 -317 q -26 -285 10 -317 q -61 -210 -61 -253 q -44 -132 -61 -167 q 8 -97 -26 -97 q 65 -117 43 -97 q 25 -211 25 -168 q 99 -281 25 -281 q 211 -245 147 -281 q 340 -145 275 -210 q 460 28 406 -81 q 538 263 515 136 q 415 63 492 142 q 238 -17 338 -17 q 155 19 186 -17 q 124 115 124 54 q 170 329 124 176 q 217 530 217 482 q 181 578 217 578 q 125 542 154 578 q 78 442 96 507 l 54 447 q 203 617 106 617 q 293 519 293 617 q 250 326 293 481 q 207 124 207 172 q 278 29 207 29 m 264 756 q 255 765 264 756 q 246 800 246 774 q 264 844 246 826 q 308 863 282 863 q 353 844 335 863 q 371 800 371 826 q 353 756 371 774 q 308 738 335 738 q 264 756 282 738 m 486 756 q 477 765 486 756 q 468 800 468 774 q 486 844 468 826 q 531 863 504 863 q 575 844 557 863 q 593 800 593 826 q 575 756 593 774 q 531 738 557 738 q 486 756 504 738 z "},"ı":{"ha":383,"x_min":97,"x_max":339,"o":"m 97 88 q 199 553 97 161 l 110 546 l 108 569 q 288 604 204 582 l 307 590 q 215 281 258 446 q 172 69 172 115 q 207 22 172 22 q 264 58 233 22 q 317 158 294 93 l 339 153 q 183 -17 279 -17 q 97 88 97 -17 z "},"Ł":{"ha":629,"x_min":14,"x_max":601,"o":"m 53 315 l 32 354 l 460 572 l 481 533 l 53 315 m 364 831 l 196 32 l 469 32 q 514 63 504 32 l 571 232 l 601 232 l 588 167 q 561 -12 561 46 q 418 0 521 0 l 14 0 l 18 25 l 82 25 q 104 46 100 25 q 271 842 271 835 q 256 850 271 850 l 194 850 l 199 875 l 454 875 l 450 850 l 388 850 q 364 831 369 850 z "},"ł":{"ha":369,"x_min":39,"x_max":374,"o":"m 60 349 l 39 388 l 336 539 l 357 500 l 60 349 m 158 68 q 193 22 158 22 q 250 58 219 22 q 303 158 281 93 l 325 153 q 169 -17 265 -17 q 83 92 83 -17 q 265 861 83 201 l 176 854 l 175 878 q 354 913 271 890 l 374 899 q 237 435 315 728 q 158 68 158 143 z "},"Œ":{"ha":1174,"x_min":69,"x_max":1188,"o":"m 790 453 l 783 421 q 690 191 756 296 q 529 32 624 86 l 924 32 q 967 63 957 32 l 1025 232 l 1056 232 l 1042 167 q 1015 -12 1015 43 q 872 0 975 0 l 456 0 q 346 -17 396 -17 q 144 67 218 -17 q 69 300 69 150 q 147 622 69 467 q 367 856 233 792 q 512 892 442 892 q 628 875 582 892 l 1038 875 q 1188 888 1143 875 q 1138 708 1167 839 l 1124 643 l 1093 643 l 1111 819 q 1081 843 1111 843 l 689 843 q 801 576 801 761 q 790 453 801 519 m 653 785 q 628 820 653 785 q 519 856 603 856 q 366 797 436 856 q 254 647 296 738 q 167 286 167 460 q 217 90 167 160 q 350 19 267 19 q 504 78 433 19 q 617 226 575 138 q 704 588 704 413 q 653 785 704 714 m 699 418 l 706 457 l 986 457 q 1006 476 1000 458 l 1033 563 l 1057 563 l 1003 313 l 979 313 l 992 399 q 976 418 992 418 l 699 418 z "},"œ":{"ha":969,"x_min":56,"x_max":956,"o":"m 56 201 q 139 475 56 344 q 244 577 179 538 q 394 617 310 617 q 531 560 478 617 q 583 404 583 503 q 547 213 583 306 q 433 51 511 119 q 258 -17 356 -17 q 108 40 161 -17 q 56 201 56 97 m 382 586 q 249 511 307 586 q 167 347 192 436 q 143 181 143 258 q 174 59 143 104 q 260 14 206 14 q 363 58 315 14 q 439 168 411 103 q 496 399 496 301 q 465 542 496 497 q 382 586 435 586 m 808 617 q 919 581 882 617 q 956 480 956 546 q 904 365 956 414 q 644 282 817 282 q 556 290 593 282 l 556 317 q 636 310 604 310 q 815 368 751 310 q 878 496 878 426 q 858 558 878 533 q 791 583 838 583 q 697 540 744 583 q 622 433 649 497 q 565 200 565 299 q 676 17 565 17 q 878 167 814 17 l 900 161 q 803 30 867 76 q 661 -17 740 -17 q 528 42 582 -17 q 474 199 474 100 q 511 390 474 297 q 628 549 549 482 q 808 617 707 617 z "},"Š":{"ha":635,"x_min":-21,"x_max":656,"o":"m 246 -17 q 72 33 147 -17 q 38 49 47 49 q 6 0 13 49 l -21 0 l 28 232 l 53 232 q 51 199 51 221 q 103 66 51 108 q 247 24 156 24 q 399 88 338 24 q 461 237 461 153 q 375 363 461 321 l 264 419 q 133 618 133 483 q 215 808 133 724 q 421 892 297 892 q 569 846 503 892 q 600 831 592 831 q 624 860 614 831 l 631 883 l 656 883 l 604 643 l 581 643 q 583 683 583 671 q 540 810 583 769 q 414 851 496 851 q 274 790 332 851 q 217 653 217 729 q 301 514 217 558 l 444 440 q 560 272 560 381 q 465 73 560 163 q 246 -17 371 -17 m 358 1169 l 456 1051 l 597 1169 l 615 1147 l 497 992 q 441 961 472 961 q 397 993 410 961 l 336 1157 l 358 1169 z "},"š":{"ha":526,"x_min":35,"x_max":515,"o":"m 322 583 q 295 583 322 583 q 231 553 268 583 q 193 475 193 522 q 232 389 193 428 q 317 324 271 350 q 401 257 363 299 q 440 168 440 215 q 372 31 440 79 q 206 -17 303 -17 q 35 29 108 -17 q 79 193 58 76 l 103 189 q 93 99 93 132 q 124 40 93 67 q 215 13 156 13 q 315 49 274 13 q 356 143 356 85 q 319 216 356 181 q 238 275 282 251 q 158 342 194 299 q 121 436 121 385 q 181 565 121 513 q 340 617 242 617 q 492 579 417 617 q 469 510 485 564 q 444 407 453 456 l 421 411 q 429 497 429 456 q 402 560 429 538 q 322 583 375 583 m 258 894 l 356 776 l 497 894 l 515 872 l 397 717 q 341 686 372 686 q 297 718 310 686 l 236 882 l 258 894 z "},"Ÿ":{"ha":632,"x_min":85,"x_max":771,"o":"m 343 264 l 282 257 l 154 831 q 133 850 150 850 l 85 850 l 89 875 l 318 875 l 314 850 l 249 850 l 360 357 l 653 850 l 588 850 l 592 875 l 771 875 l 767 850 l 718 850 q 689 831 701 850 l 343 264 m 279 336 l 368 313 q 311 34 311 43 q 326 25 311 25 l 418 25 l 414 0 l 97 0 l 101 25 l 196 25 q 218 46 214 25 l 279 336 m 339 1031 q 330 1040 339 1031 q 321 1075 321 1049 q 339 1119 321 1101 q 383 1138 357 1138 q 428 1119 410 1138 q 446 1075 446 1101 q 428 1031 446 1049 q 383 1013 410 1013 q 339 1031 357 1013 m 561 1031 q 552 1040 561 1031 q 543 1075 543 1049 q 561 1119 543 1101 q 606 1138 579 1138 q 650 1119 632 1138 q 668 1075 668 1101 q 650 1031 668 1049 q 606 1013 632 1013 q 561 1031 579 1013 z "},"Ž":{"ha":758,"x_min":0,"x_max":786,"o":"m 0 0 l 7 39 l 653 836 l 304 836 q 261 806 271 836 l 207 643 l 176 643 l 190 708 q 215 888 215 822 q 360 875 258 875 l 786 875 l 778 836 l 133 39 l 508 39 q 553 69 543 39 l 607 232 l 638 232 l 624 167 q 599 -12 599 53 q 454 0 558 0 l 0 0 m 418 1169 l 515 1051 l 657 1169 l 675 1147 l 557 992 q 501 961 532 961 q 457 993 469 961 l 396 1157 l 418 1169 z "},"ž":{"ha":515,"x_min":-6,"x_max":508,"o":"m 486 608 l 508 603 q 468 507 497 539 l 115 124 q 215 93 143 122 q 326 64 286 64 q 426 175 407 64 l 453 171 q 338 -17 433 -17 q 201 28 279 -17 q 90 72 122 72 q 15 -17 42 72 l -6 -10 q 47 99 18 65 l 403 486 q 315 513 379 488 q 213 538 251 538 q 113 432 132 538 l 86 436 q 201 617 106 617 q 331 578 261 617 q 421 539 401 539 q 486 608 467 539 m 247 894 l 344 776 l 486 894 l 504 872 l 386 717 q 330 686 361 686 q 286 718 299 686 l 225 882 l 247 894 z "},"ƒ":{"ha":611,"x_min":-21,"x_max":613,"o":"m 322 542 l 296 386 l 472 386 l 465 343 l 290 343 l 214 -121 q 149 -253 199 -211 q -21 -308 99 -296 l -21 -275 q 118 -146 101 -250 q 196 343 118 -146 l 76 343 l 83 386 l 203 386 q 475 804 282 804 q 578 772 543 804 q 613 692 613 740 q 592 605 613 644 q 536 565 571 565 q 486 586 501 565 q 521 699 521 649 q 469 769 521 769 q 374 710 407 769 q 322 542 340 651 z "},"ˆ":{"ha":358,"x_min":42,"x_max":321,"o":"m 299 679 l 201 797 l 60 679 l 42 701 l 160 857 q 216 888 185 888 q 260 856 247 888 l 321 692 l 299 679 z "},"ˇ":{"ha":358,"x_min":38,"x_max":317,"o":"m 60 894 l 157 776 l 299 894 l 317 872 l 199 717 q 142 686 174 686 q 99 718 111 686 l 38 882 l 60 894 z "},"˘":{"ha":368,"x_min":42,"x_max":326,"o":"m 83 876 q 106 835 83 850 q 174 819 129 819 q 250 839 219 819 q 288 889 281 858 l 326 889 q 266 781 313 824 q 160 739 219 739 q 72 769 101 739 q 42 850 42 800 q 46 889 42 868 l 85 889 q 83 876 83 885 z "},"˙":{"ha":267,"x_min":60,"x_max":207,"o":"m 81 716 q 70 727 81 716 q 60 768 60 738 q 81 820 60 799 q 133 842 103 842 q 185 820 164 842 q 207 768 207 799 q 185 716 207 738 q 133 694 164 694 q 81 716 103 694 z "},"˚":{"ha":351,"x_min":56,"x_max":296,"o":"m 159 685 q 134 685 159 685 q 82 708 108 685 q 56 780 56 731 q 98 873 56 829 q 192 917 140 917 q 296 829 296 917 q 253 724 296 764 q 159 685 210 685 m 197 890 q 178 890 197 890 q 138 849 158 890 q 117 760 117 808 q 156 711 117 711 q 209 744 182 711 q 236 819 236 778 q 197 890 236 890 z "},"˛":{"ha":336,"x_min":42,"x_max":294,"o":"m 276 -176 l 294 -192 q 169 -258 244 -258 q 77 -227 113 -258 q 42 -148 42 -196 q 85 -54 42 -100 q 215 17 129 -8 l 224 0 q 138 -56 167 -19 q 110 -133 110 -92 q 131 -196 110 -174 q 192 -218 153 -218 q 276 -176 232 -218 z "},"˜":{"ha":444,"x_min":42,"x_max":403,"o":"m 378 881 l 403 871 q 342 765 372 794 q 286 736 313 736 q 215 752 260 736 q 147 768 171 768 q 106 756 122 768 q 65 706 89 743 l 42 715 q 163 849 93 849 q 226 833 182 849 q 296 817 271 817 q 338 830 321 817 q 378 881 354 843 z "},"˝":{"ha":522,"x_min":42,"x_max":479,"o":"m 242 786 l 60 679 l 42 701 l 196 868 q 235 888 214 888 q 268 874 257 888 q 279 842 279 861 q 242 786 279 807 m 442 786 l 260 679 l 242 701 l 396 868 q 435 888 414 888 q 468 874 457 888 q 479 842 479 861 q 442 786 479 807 z "},"π":{"ha":701,"x_min":86,"x_max":713,"o":"m 183 0 l 86 -8 l 206 554 l 113 554 l 122 600 l 713 600 l 703 554 l 610 554 q 514 67 514 121 q 528 28 514 43 q 561 13 543 13 l 551 -17 q 422 88 422 -17 q 432 164 422 115 l 514 554 l 300 554 l 183 0 z "},"–":{"ha":511,"x_min":42,"x_max":511,"o":"m 42 293 l 54 349 l 511 349 l 499 293 l 42 293 z "},"—":{"ha":846,"x_min":42,"x_max":846,"o":"m 42 293 l 54 349 l 846 349 l 833 293 l 42 293 z "},"‘":{"ha":108,"x_min":0,"x_max":206,"o":"m 206 908 q 115 763 115 839 q 144 694 115 721 q 112 639 138 663 q 57 615 86 615 q 0 672 0 615 q 56 808 0 729 q 194 928 113 886 l 206 908 z "},"’":{"ha":289,"x_min":83,"x_max":289,"o":"m 83 635 q 174 781 174 704 q 144 849 174 822 q 177 904 151 881 q 232 928 203 928 q 289 871 289 928 q 233 735 289 814 q 94 615 176 657 l 83 635 z "},"‚":{"ha":253,"x_min":7,"x_max":213,"o":"m 7 -154 q 97 -8 97 -85 q 68 60 97 33 q 101 115 75 92 q 156 139 126 139 q 213 82 213 139 q 156 -53 213 25 q 18 -174 100 -132 l 7 -154 z "},"“":{"ha":310,"x_min":0,"x_max":407,"o":"m 206 908 q 115 763 115 839 q 144 694 115 721 q 112 639 138 663 q 57 615 86 615 q 0 672 0 615 q 56 808 0 729 q 194 928 113 886 l 206 908 m 407 908 q 317 763 317 839 q 346 694 317 721 q 313 639 339 663 q 258 615 288 615 q 201 672 201 615 q 258 808 201 729 q 396 928 314 886 l 407 908 z "},"”":{"ha":490,"x_min":83,"x_max":490,"o":"m 83 635 q 174 781 174 704 q 144 849 174 822 q 177 904 151 881 q 232 928 203 928 q 289 871 289 928 q 233 735 289 814 q 94 615 176 657 l 83 635 m 285 635 q 375 781 375 704 q 346 849 375 822 q 378 904 353 881 q 433 928 404 928 q 490 871 490 928 q 434 735 490 814 q 296 615 378 657 l 285 635 z "},"„":{"ha":454,"x_min":7,"x_max":414,"o":"m 7 -154 q 97 -8 97 -85 q 68 60 97 33 q 101 115 75 92 q 156 139 126 139 q 213 82 213 139 q 156 -53 213 25 q 18 -174 100 -132 l 7 -154 m 208 -154 q 299 -8 299 -85 q 269 60 299 33 q 302 115 276 92 q 357 139 328 139 q 414 82 414 139 q 358 -53 414 25 q 219 -174 301 -132 l 208 -154 z "},"†":{"ha":510,"x_min":83,"x_max":543,"o":"m 306 693 l 303 813 q 374 917 303 917 q 417 875 417 917 q 379 772 417 853 q 325 646 342 692 q 431 669 375 653 q 503 685 488 685 q 543 649 543 685 q 526 606 543 624 q 490 588 508 588 q 351 621 471 588 l 154 -149 l 139 -149 l 269 621 q 214 607 251 617 q 122 588 140 588 q 83 624 83 588 q 100 667 83 649 q 138 685 117 685 q 208 669 158 685 q 304 646 257 653 l 306 693 z "},"‡":{"ha":510,"x_min":-28,"x_max":543,"o":"m 210 58 l 213 -61 q 142 -165 213 -165 q 99 -124 99 -165 q 136 -20 99 -100 q 190 106 174 60 q 84 83 140 99 q 13 67 28 67 q -28 103 -28 67 q -10 146 -28 128 q 26 164 7 164 q 164 131 44 164 l 249 375 l 269 621 q 214 607 251 617 q 122 588 140 588 q 83 624 83 588 q 100 667 83 649 q 138 685 117 685 q 208 669 158 685 q 304 646 257 653 l 306 693 l 303 813 q 374 917 303 917 q 417 875 417 917 q 379 772 417 853 q 325 646 342 692 q 431 669 375 653 q 503 685 488 685 q 543 649 543 685 q 526 606 543 624 q 490 588 508 588 q 351 621 471 588 l 265 375 l 246 131 q 300 144 264 135 q 393 164 375 164 q 432 128 432 164 q 415 85 432 103 q 378 67 399 67 q 308 83 357 67 q 211 106 258 99 q 210 58 210 89 z "},"•":{"ha":314,"x_min":56,"x_max":258,"o":"m 85 322 q 70 336 85 322 q 56 393 56 351 q 85 465 56 435 q 157 494 115 494 q 228 465 199 494 q 258 393 258 435 q 228 322 258 351 q 157 292 199 292 q 85 322 115 292 z "},"…":{"ha":800,"x_min":60,"x_max":740,"o":"m 81 5 q 70 16 81 5 q 60 57 60 26 q 81 109 60 88 q 133 131 103 131 q 185 109 164 131 q 207 57 207 88 q 185 5 207 26 q 133 -17 164 -17 q 81 5 103 -17 m 348 5 q 337 16 348 5 q 326 57 326 26 q 348 109 326 88 q 400 131 369 131 q 452 109 431 131 q 474 57 474 88 q 452 5 474 26 q 400 -17 431 -17 q 348 5 369 -17 m 615 5 q 604 16 615 5 q 593 57 593 26 q 615 109 593 88 q 667 131 636 131 q 719 109 697 131 q 740 57 740 88 q 719 5 740 26 q 667 -17 697 -17 q 615 5 636 -17 z "},"‰":{"ha":1556,"x_min":125,"x_max":1528,"o":"m 265 285 q 231 285 265 285 q 160 328 196 285 q 125 448 125 372 q 150 601 125 524 q 234 742 175 679 q 363 804 293 804 q 467 761 432 804 q 503 643 503 718 q 478 490 503 568 q 394 348 453 411 q 265 285 335 285 m 364 778 q 254 660 306 778 q 203 427 203 542 q 265 313 203 313 q 342 371 304 313 q 403 510 381 429 q 426 653 426 590 q 364 778 426 778 m 858 -11 q 824 -11 858 -11 q 753 33 789 -11 q 718 152 718 76 q 743 306 718 228 q 827 446 768 383 q 956 508 886 508 q 1060 465 1025 508 q 1096 347 1096 422 q 1071 194 1096 272 q 987 52 1046 115 q 858 -11 928 -11 m 957 482 q 847 364 899 482 q 796 131 796 246 q 858 17 796 17 q 935 75 897 17 q 997 214 974 133 q 1019 357 1019 294 q 957 482 1019 482 m 1290 -11 q 1256 -11 1290 -11 q 1185 33 1221 -11 q 1150 152 1150 76 q 1175 306 1150 228 q 1259 446 1200 383 q 1388 508 1318 508 q 1492 465 1457 508 q 1528 347 1528 422 q 1503 194 1528 272 q 1419 52 1478 115 q 1290 -11 1360 -11 m 1389 482 q 1279 364 1331 482 q 1228 131 1228 246 q 1290 17 1228 17 q 1367 75 1329 17 q 1428 214 1406 133 q 1451 357 1451 294 q 1389 482 1451 482 m 458 -103 l 415 -103 l 761 900 l 806 900 l 458 -103 z "},"‹":{"ha":325,"x_min":42,"x_max":325,"o":"m 42 313 l 46 329 l 307 567 l 325 547 l 153 321 l 229 94 l 203 75 l 42 313 z "},"›":{"ha":325,"x_min":17,"x_max":299,"o":"m 299 329 l 294 313 l 33 75 l 17 94 l 189 321 l 113 547 l 138 567 l 299 329 z "},"⁄":{"ha":443,"x_min":26,"x_max":417,"o":"m 69 -103 l 26 -103 l 372 900 l 417 900 l 69 -103 z "},"€":{"ha":611,"x_min":-24,"x_max":622,"o":"m 467 383 l 447 342 l 161 342 q 147 206 147 265 q 279 22 147 22 q 396 73 350 22 q 442 186 442 124 q 440 213 442 204 q 508 233 474 233 q 539 194 539 233 q 463 48 539 113 q 273 -17 386 -17 q 108 53 160 -17 q 57 238 57 124 q 67 342 57 292 l -24 342 l -4 383 l 75 383 l 88 433 l 21 433 l 40 475 l 103 475 q 250 710 154 615 q 463 804 346 804 q 583 768 543 804 q 622 679 622 732 q 603 590 622 626 q 551 554 585 554 q 496 575 517 554 q 535 685 535 631 q 456 765 535 765 q 306 683 376 765 q 194 475 236 600 l 507 475 l 486 433 l 182 433 q 178 417 181 428 q 169 383 172 394 l 467 383 z "},"™":{"ha":932,"x_min":139,"x_max":982,"o":"m 361 851 l 279 468 q 294 454 279 454 l 340 454 l 336 435 l 139 435 l 143 454 l 189 454 q 213 474 208 454 l 293 851 l 214 851 q 190 832 196 851 l 164 750 l 144 750 l 153 788 q 168 883 165 851 q 257 875 201 875 l 406 875 q 499 883 460 875 q 472 788 488 863 l 464 750 l 446 750 q 454 836 454 833 q 440 851 454 851 l 361 851 m 681 528 l 883 875 l 982 875 l 978 856 l 956 856 q 933 836 938 856 q 871 539 886 606 q 856 468 856 472 q 871 454 856 454 l 893 454 l 889 435 l 740 435 l 744 454 l 765 454 q 789 474 783 454 l 851 767 l 658 435 l 624 435 l 564 767 l 500 468 q 515 454 500 454 l 536 454 l 532 435 l 425 435 l 429 454 l 450 454 q 474 474 469 454 q 550 840 550 838 q 535 856 550 856 l 514 856 l 518 875 l 615 875 l 681 528 z "},"Ω":{"ha":986,"x_min":35,"x_max":968,"o":"m 857 622 q 857 691 857 622 q 795 830 857 760 q 628 900 733 900 q 431 822 522 900 q 294 635 340 744 q 249 414 249 525 q 343 165 249 254 l 310 3 l 35 3 l 39 28 l 203 28 q 226 47 222 28 l 256 163 q 138 424 138 264 q 203 672 138 554 q 385 863 268 789 q 646 936 501 936 q 879 855 790 936 q 968 624 968 774 q 891 356 968 475 q 697 163 814 236 l 676 47 q 692 28 679 28 l 856 28 l 851 3 l 576 3 l 610 165 q 783 358 710 232 q 857 622 857 485 z "},"∂":{"ha":656,"x_min":38,"x_max":628,"o":"m 333 989 q 551 794 474 929 q 628 509 628 658 q 585 247 628 360 q 453 58 543 133 q 242 -17 364 -17 q 93 40 149 -17 q 38 193 38 96 q 156 481 38 360 q 413 601 274 601 q 536 547 489 601 l 544 553 q 307 946 521 846 l 333 989 m 268 22 q 442 146 365 22 q 519 397 519 269 q 486 517 519 472 q 385 561 453 561 q 258 494 318 561 q 170 341 199 426 q 142 182 142 256 q 175 65 142 108 q 268 22 208 22 z "},"∆":{"ha":861,"x_min":3,"x_max":738,"o":"m 535 972 l 614 972 l 738 0 l 3 0 l 535 972 m 524 860 l 104 81 l 614 81 l 524 860 z "},"∏":{"ha":897,"x_min":101,"x_max":958,"o":"m 851 926 q 719 303 789 631 q 649 -42 649 -24 q 660 -75 649 -61 q 697 -89 672 -89 l 688 -118 q 558 -14 558 -118 q 568 63 558 14 l 751 926 l 418 926 l 200 -101 l 101 -101 l 319 926 l 222 926 l 232 972 l 958 972 l 949 926 l 851 926 z "},"∑":{"ha":671,"x_min":-26,"x_max":782,"o":"m -26 -31 l 385 442 l 197 926 l 207 972 l 782 972 l 772 926 l 304 926 l 494 435 l 107 -10 l 564 -10 l 544 -101 l 29 -101 l -26 -31 z "},"−":{"ha":701,"x_min":103,"x_max":636,"o":"m 621 236 l 103 236 l 118 310 l 636 310 l 621 236 z "},"√":{"ha":597,"x_min":32,"x_max":908,"o":"m 210 -175 l 115 -175 l 32 486 l 140 486 l 206 -62 l 665 972 l 908 972 l 897 921 l 697 921 l 210 -175 z "},"∞":{"ha":932,"x_min":67,"x_max":917,"o":"m 744 608 q 874 563 831 608 q 917 446 917 517 q 844 267 917 347 q 654 186 771 186 q 547 226 583 186 q 486 338 510 265 q 374 226 431 267 q 236 186 317 186 q 111 232 156 186 q 67 349 67 278 q 141 527 67 446 q 332 608 215 608 q 438 568 401 608 q 499 456 475 528 q 744 608 615 608 m 838 454 q 811 541 838 510 q 744 572 785 572 q 676 558 704 572 q 617 511 647 544 q 519 382 567 453 q 606 232 554 258 q 661 219 629 219 q 783 290 729 219 q 838 454 838 360 m 149 342 q 175 253 149 286 q 241 219 201 219 q 308 233 281 219 q 367 281 336 247 q 464 411 408 328 q 436 493 449 464 q 394 547 424 522 q 324 572 365 572 q 202 508 256 572 q 149 342 149 443 z "},"∫":{"ha":538,"x_min":-107,"x_max":690,"o":"m 4 -175 q -81 -144 -56 -175 q -107 -71 -107 -114 q -97 -28 -107 -37 q -69 -19 -87 -19 q -34 -27 -51 -19 q -15 -47 -17 -35 q -21 -94 -21 -71 q 24 -140 -21 -140 q 168 88 119 -140 l 271 572 q 578 1044 372 1044 q 665 1014 639 1044 q 690 949 690 983 q 684 902 690 915 q 656 889 678 889 q 599 921 599 889 q 603 961 603 944 q 557 1010 603 1010 q 414 782 463 1010 l 311 297 q 4 -175 210 -175 z "},"≈":{"ha":701,"x_min":69,"x_max":622,"o":"m 603 450 l 622 401 q 471 338 554 338 q 355 355 431 338 q 233 372 279 372 q 138 338 188 372 l 118 386 q 267 447 185 447 q 382 430 307 447 q 503 413 457 413 q 603 450 550 413 m 556 224 l 574 175 q 424 111 508 111 q 308 128 383 111 q 185 146 232 146 q 90 111 139 146 l 69 160 q 218 221 136 221 q 333 203 258 221 q 455 186 408 186 q 556 224 501 186 z "},"≠":{"ha":701,"x_min":39,"x_max":622,"o":"m 607 354 l 89 354 l 104 428 l 622 428 l 607 354 m 557 118 l 39 118 l 54 192 l 572 192 l 557 118 m 176 -229 l 133 -229 l 479 774 l 524 774 l 176 -229 z "},"≤":{"ha":701,"x_min":31,"x_max":719,"o":"m 703 625 l 215 411 l 613 199 l 596 122 l 132 375 l 147 449 l 719 701 l 703 625 m 549 -110 l 31 -110 l 46 -36 l 564 -36 l 549 -110 z "},"≥":{"ha":701,"x_min":31,"x_max":665,"o":"m 94 199 l 581 411 l 185 625 l 201 701 l 665 449 l 650 375 l 78 122 l 94 199 m 549 -110 l 31 -110 l 46 -36 l 564 -36 l 549 -110 z "},"◊":{"ha":710,"x_min":63,"x_max":697,"o":"m 306 -110 l 225 -110 l 63 431 l 454 972 l 535 972 l 697 431 l 306 -110 m 450 889 l 122 431 l 254 -26 l 589 431 l 450 889 z "},"ﬀ":{"ha":736,"x_min":-174,"x_max":944,"o":"m 53 550 l 60 576 l 200 576 q 304 819 232 721 q 483 917 376 917 q 665 849 610 917 q 801 917 729 917 q 909 885 874 917 q 944 810 944 853 q 927 732 944 767 q 872 697 910 697 q 818 717 835 697 q 858 821 858 768 q 798 885 858 885 q 701 824 738 885 q 642 654 665 764 l 625 576 l 763 576 l 756 550 l 619 550 l 511 44 q 413 -228 471 -139 q 271 -317 354 -317 q 189 -285 218 -317 q 160 -213 160 -253 q 176 -142 160 -174 q 226 -111 192 -111 q 276 -129 261 -111 q 247 -171 258 -143 q 235 -225 235 -199 q 285 -285 235 -285 q 369 -199 340 -285 q 450 147 399 -112 l 529 550 l 286 550 l 178 44 q -62 -317 101 -317 q -144 -285 -115 -317 q -174 -213 -174 -253 q -158 -142 -174 -174 q -107 -111 -142 -111 q -57 -129 -72 -111 q -87 -171 -75 -143 q -99 -225 -99 -199 q -49 -285 -99 -285 q 37 -196 7 -285 q 117 147 67 -107 l 196 550 l 53 550 m 308 654 l 292 576 l 533 576 q 610 778 558 682 q 575 854 608 824 q 476 885 542 885 q 372 825 411 885 q 308 654 332 765 z "},"ﬁ":{"ha":708,"x_min":-174,"x_max":686,"o":"m 197 558 q 299 813 226 710 q 481 917 372 917 q 635 873 590 917 q 681 771 681 829 q 665 719 681 740 q 618 697 650 697 q 569 717 586 697 q 592 794 592 756 q 564 859 592 833 q 485 885 536 885 q 372 825 411 885 q 308 654 332 765 l 178 44 q -62 -317 101 -317 q -144 -285 -115 -317 q -174 -213 -174 -253 q -158 -142 -174 -174 q -107 -111 -142 -111 q -57 -129 -72 -111 q -87 -171 -75 -143 q -99 -225 -99 -199 q -49 -285 -99 -285 q 37 -196 7 -285 q 117 147 67 -107 l 197 558 m 546 550 l 72 550 l 79 576 l 429 576 q 635 604 547 576 l 654 590 q 563 281 606 446 q 519 69 519 115 q 554 22 519 22 q 611 58 581 22 q 664 158 642 93 l 686 153 q 531 -17 626 -17 q 444 88 444 -17 q 546 550 444 158 z "},"ﬂ":{"ha":744,"x_min":-174,"x_max":749,"o":"m 533 68 q 568 22 533 22 q 625 58 594 22 q 678 158 656 93 l 700 153 q 544 -17 640 -17 q 458 88 458 -17 q 535 452 458 147 q 611 774 611 757 q 581 854 611 824 q 499 885 551 885 q 308 654 357 885 l 292 576 l 429 576 l 422 550 l 286 550 l 178 44 q -62 -317 101 -317 q -144 -285 -115 -317 q -174 -213 -174 -253 q -158 -142 -174 -174 q -107 -111 -142 -111 q -57 -129 -72 -111 q -87 -171 -75 -143 q -99 -225 -99 -199 q -49 -285 -99 -285 q 37 -196 7 -285 q 117 147 67 -107 l 196 550 l 72 550 l 79 576 l 200 576 q 309 825 233 733 q 501 917 385 917 q 667 844 617 917 l 729 913 l 749 899 q 612 435 690 728 q 533 68 533 143 z "},"ﬃ":{"ha":1042,"x_min":-174,"x_max":1019,"o":"m 308 654 l 292 576 l 533 576 q 610 778 558 682 q 575 854 608 824 q 476 885 542 885 q 372 825 411 885 q 308 654 332 765 m 625 576 l 763 576 q 968 604 881 576 l 988 590 q 896 281 939 446 q 853 69 853 115 q 888 22 853 22 q 944 58 914 22 q 997 158 975 93 l 1019 153 q 864 -17 960 -17 q 778 88 778 -17 q 879 550 778 158 l 619 550 l 511 44 q 413 -228 471 -139 q 271 -317 354 -317 q 189 -285 218 -317 q 160 -213 160 -253 q 176 -142 160 -174 q 226 -111 192 -111 q 276 -129 261 -111 q 247 -171 258 -143 q 235 -225 235 -199 q 285 -285 235 -285 q 369 -199 340 -285 q 450 147 399 -112 l 529 550 l 286 550 l 178 44 q -62 -317 101 -317 q -144 -285 -115 -317 q -174 -213 -174 -253 q -158 -142 -174 -174 q -107 -111 -142 -111 q -57 -129 -72 -111 q -87 -171 -75 -143 q -99 -225 -99 -199 q -49 -285 -99 -285 q 37 -196 7 -285 q 117 147 67 -107 l 196 550 l 72 550 l 79 576 l 200 576 q 304 819 232 721 q 483 917 376 917 q 665 849 610 917 q 826 917 729 917 q 969 873 924 917 q 1014 771 1014 829 q 999 719 1014 740 q 951 697 983 697 q 903 717 919 697 q 925 794 925 756 q 897 859 925 833 q 818 885 869 885 q 705 825 744 885 q 642 654 665 765 l 625 576 z "},"ﬄ":{"ha":1078,"x_min":-174,"x_max":1082,"o":"m 308 654 l 292 576 l 533 576 q 549 626 539 592 q 564 679 558 660 q 610 778 582 733 q 575 854 608 824 q 476 885 542 885 q 372 825 411 885 q 308 654 332 765 m 944 774 q 915 854 944 824 q 832 885 885 885 q 642 654 690 885 l 625 576 l 763 576 l 756 550 l 619 550 l 511 44 q 271 -317 435 -317 q 189 -285 218 -317 q 160 -213 160 -253 q 176 -142 160 -174 q 226 -111 192 -111 q 276 -129 261 -111 q 247 -171 258 -143 q 235 -225 235 -199 q 285 -285 235 -285 q 370 -196 340 -285 q 450 147 400 -107 l 529 550 l 286 550 l 178 44 q -62 -317 101 -317 q -144 -285 -115 -317 q -174 -213 -174 -253 q -158 -142 -174 -174 q -107 -111 -142 -111 q -57 -129 -72 -111 q -87 -171 -75 -143 q -99 -225 -99 -199 q -49 -285 -99 -285 q 37 -196 7 -285 q 117 147 67 -107 l 196 550 l 72 550 l 79 576 l 200 576 q 304 819 232 721 q 483 917 376 917 q 665 849 610 917 q 831 917 736 917 q 1000 844 950 917 l 1063 913 l 1082 899 q 945 435 1024 728 q 867 68 867 143 q 901 22 867 22 q 958 58 928 22 q 1011 158 989 93 l 1033 153 q 878 -17 974 -17 q 792 88 792 -17 q 868 452 792 147 q 944 774 944 757 z "}," ":{"ha":347,"x_min":0,"x_max":0,"o":""}}}
